<svg xmlns="http://www.w3.org/2000/svg" width="350" height="350"><path fill="none" stroke="#ec1e24" d="M.6.6h348.7v348.8H.6z" stroke-width="1.2"/><path d="M344.5 263.8v-7.6h-1.7v.8h-2v-2.3H337v-3.5h-5.8v-.6H329v.6h-1v1.7h-1.3v2.2h-4v-4.8H321v-.6h-4.6v.6h-1.8v-1.2h-3v.6h-.5v.6h-.5v5.2h-1.8v-27.2h-3v-1.7H297v1.7h-1.2v35.4H294V252h-1.8v-26H291v-3h-8v-1h-1.4v-3h-3.8l-1-1v-2H275l-5.5-6.3-10 8.5h-9v2.8H249v24h-1.4v-.7h-.7v-2.8H245.6v2.8h-1v.8h-.7v14.3h-9.7l-2.3-5c-.7-3 6.3-6.2 10.4-7.3h-12.2l-1-5.5-.6 5.5h-13.2c3.4 1 12 4 10.8 7.2l-1.8 5H216s5 2 5.2 3.5h-9v-28.5h-.8v-2.4h.7v-3.4h-4.6l-.6-.6h-3v-7c0-.4 2.5.3 2.5.3 0-1.3-3.5-3.4-3.5-2.3v9h-3l-.5.7h-5v3.4h.6v2.4h-.7v29.2H193v-7h-2.2v-41.3l-.7-1.7-.6 1.8h-1c-1.3-9.4-2-9-2-9l-.8 2h-1.4l-.8-2h-.6l-.5 2H181l-.8-3v-2h-1v-1.7-7h-.5v7h-.6v1.8h-.7v2l-1 3h-4.5l-1-2-2 9h-1l-.7-1.7-.8 1.8v27h-1.4v14h-2.3v-14.7h-1V240h-.7v-1.6h-7v1.7h-.5v1.8h-.6v21.5h-1.5v-79.6h-8.8v-1h-1.6v-1.3h-1.2v1.2h-4.2v-1.2h-.6v2.3H132V225h-1v-1h-2.2v-1.8h-.7v1.8h-.8v.4h-.6v.7h-.8v27h-1.2v-41.5h-2.2v-1h-1.2v1h-1v-2H117v.6h-4.2v1.5h-1.5v-3.8h-1v3.8H109V209h-4v1.5h-2v53h-1v-9h-1.2V238h-1v-3h-1.3v3.5h-3v-1h-5.4v1h-1.3v7.7h-6v-5h-19v5h-6.4v4.4h-4v8.5H49v8h-6V265h3.6v-10h-7s4.2-3.6 6.3-4.4c-16-3.3-25.7-3.2-40.8 0 3 1.2 6 4.3 6 4.3h-7v10h3.5v2.3h-7v82h348.6v-85.8h-4.8zm-205.7 66.8l-1.3.4h-1l-1-.3h-2.2l-.8.5h-.8c-.2-.2-.5-.7-.7-1.3v-1h2.2c.3.3.5.5.5 1 .2-.7.3-1.3.3-2v-1.6-1.6c0-.6.3-1 .5-1.8v-11.2l-.8-5c-.8 1-1.2 2-1.6 3.5l-1 3.8c0 1.5-.4 2.8-.6 4.2-.2 1.4-.6 2.7-1 4-.3.5-.8.8-1.2.8H127c-.5-.4-.7-1-.8-1.4l-.4-1.5c0-.5-.2-1-.4-1.5 0-.5-.5-1-1-1.5-.4-1.7-1-3.4-1.6-5-.8-1.7-1.2-3.4-1.7-5.3V329c.2.3.4.5.6.5h.7c.2 0 .5 0 .7-.2l.6-.2s.3.3.3.5c0 .3 0 .6-.3 1.2v1c-.4-.4-1-.6-1.4-.5h-1.7l-1.7.5c-.7 0-1.2.2-1.7 0-.5 0-1 0-1.3-.4-.4-.2-.6-.7-.7-1.4.2-.4.3-.5.6-.7 0-.3.3-.4.5-.5h.6c.3 0 .4 0 .7.2l.8 1c.5-.4.8-.6.8-1 0-.2 0-.5-.2-.8 0-.4 0-.6-.2-1-.2-.2-.3-.6-.3-.7v-19.8h1c-.6-.2-1-.2-1.3-.2h-1.7c-.3 0-.5-.2-.6-.6-.4-.3-.5-.5-.5-.7v-.5c.2 0 .4-.2.6-.4h.7c.5-.3 1-.3 1.3-.3.5 0 1 .2 1.4.3l1.2.3c.3 0 .8 0 1.3-.3l.4-.2.2.4.2.8v.7c-.3.4-.3.7 0 1 .2.5.5.8.8 1l1 1v1.3c0 .2.2.4 0 .7v2c0 .3.3.5.7.8.3.5.4 1 .5 1.5 0 .6.2 1.3.4 2l.3 1.7c0 .6.3 1 .5 1.5 0 .2.2.3.4.4h.3c.2 0 .2-.2.2-.5l.3-1c.2-.3.3-.8.4-1.3 0-.4.2-1 .4-1.4l.5-1.5.3-1.8c0-.6.4-1 .6-1.6l.6-1.4.2-1.3c.5-.5.8-1 .8-1.5s0-1 .2-1.4c0-.5 0-1 .4-1.4 0-.3.6-.7 1.2-1h4.3c.5 0 .8.2 1 .6v1.2c-.2.5-.5.6-.7.6-.3 0-.6 0-1-.3h-.6c-.2 0-.2 0-.2.5V329h.3s.3 0 .5-.3.5-.4.7-.4h.6l.5.5c.6.3.7.7.7.8l-1 1zm9.2-28.2c.2-.7.6-1.2 1.3-1.7.6-.5 1.3-.7 2-.7s1.3 0 2 .4c.5.4 1 1 1.2 2l.4.7c0 .4 0 .6-.3.8 0 .3-.2.5-.4.8l-.8.7-.8.5h-2c-.3 0-.6-.3-.8-.5l-.8-.6c-.3 0-.6-.4-.8-.5-.2 0-.3-.4-.4-.6-.3-.4-.3-.7 0-1.2zm13 27.7v1h-16.7c-.5 0-1-.2-1.4-.5-.6-.3-1-.5-1.5-.5-.2-.2-.3-.5-.2-.7 0-.3.2-.5.4-.8l.4-.7c.3-.2.4-.5.4-.7v-.3h.5s.2 0 .5.3h.7c.5.3 1 .5 1.5.5h1.5l1.5-.3h1c-.3-1.2-.4-2.4-.4-3.7v-3.8c0-1.3 0-2.5.2-3.8.2-1.3.2-2.5.2-3.7-1-.5-2-.5-3.4-.2s-2.7.8-4 1.3c-.5-.3-.8-.5-1-1-.2-.2-.2-.6 0-.8 0-.4 0-.8.2-1l.6-1h10.3c.5 1 .7 1.6.7 2.2v4.5c0 1 0 1.7.2 2.6 0 1.3-.2 2.6-.5 4-.3 1.3-.5 2.8-.5 4 .5.3 1 .5 1.6.5h1.7c.6 0 1-.2 1.7-.3h3.3c1.4 1 1.4 2 .4 3zm24.6 0c-.2.5-.5.7-.8.8-.4.2-.6.3-1 .3h-1c-.3-.2-.6-.2-.8-.2-1 .3-2.2.4-3.3.4h-3c-1 0-1.7 0-2.7-.2-1-.2-1.8-.2-2.8-.2-.7 0-1.2 0-1.7.2-.4 0-1 0-1.3.2h-1c-.4 0-.8 0-1.3-.4h-1l-.2-.6v-.8c.3-.4.3-.7.3-1.2.8-.5 1.4-.7 2-.6.6 0 1.2 0 1.8.3.6 0 1.2.3 2 .4h2.4v.3h.5c0-.2.2-.3.4-.4.6-.5 1-1 1-1.5v-1.3c0-1.3-.3-2.8 0-4.2V317l.4-4.4c0-1.5 0-2.8-.3-4.3v-2.6c0-.5-.6-.8-1.2-.8h-2c-.7 0-1.4 0-2 .2h-2c-.7-.2-1-.4-1.4-1-.4-.4-.4-1-.2-2.2h10c0-.2.4-.3.6-.3h.6c0 .2.3.3.4.6V326s-.3 0-.3.2v.3l.3.6v.8h8.2c.3 0 .4 0 .6.2.3 0 .4.2.5.3.2.2.2.4.2.6-.2.6-.3.8-.6 1zm28.6-19c0 .2-.4.5-1 .5-.3 0-.7.2-1.2.6-.3.4-.6 1-.6 1.4 0 1.5-.2 3-.6 4.2-.4 1.4-.8 2.6-1.3 3.4.2.8.3 1.5.2 2 0 .7-.2 1.3-.3 2l-.7 1.7c-.2.6-.2 1.4-.2 2V329.6c0 .2-.2.3-.4.4 0 0-.2.4-.5.6h-2.7c-.8-.2-1-.5-1.3-.8v-1.3-1.3c0-.5-.2-1-.7-1.4l-.5-1.6v-1.7c0-.5-.2-1-.5-1.5 0-.5-.4-.7-1-1l-.5 1-.4 1-.5 1.3c0 .5-.3 1-.6 1.5v.6c.2 0 .2.2.3.4v.3c0 .2 0 .5-.4.7v1c.2.4.2.8.2 1.2 0 .3 0 .6-.3 1-.2.4-.5.5-1 .5-.5.5-1 .7-2 .7-.7 0-1.4-.2-2-.7 0-1.2-.3-2.4-.5-3.7 0-1.2-.3-2.4-.4-3.6 0-1.2 0-2.4-.2-3.6l-.6-3.7c-.4-.2-.6-.4-.8-.8l-.3-1c0-.3 0-.6-.2-1 0-.3 0-.5-.3-.8l-.8-.5c-.3-.2-.8 0-1.4 0-.3-.4-.4-.8-.4-1v-1c0-.5 0-.7.2-1v-.7c.8.5 1.5.7 2.3.7h3.5c.5.2.8.5 1 1.3 0 .2-.2.4-.5.7-.4.2-.8.5-1 .8-.4.3-.5.6-.5 1s.4.8 1 1.2c0 .5-.3 1 0 1.5 0 .4 0 1 .2 1.5 0 .5.4 1 .6 1.7.3.6.3 1.2.3 2 .3.5.4 1 .3 1.4v1.5c0 .3 0 .8.2 1.2.3.3.8.6 1.5.8h.4v-.6l-.3-.7v-.7c.5-1 .7-2 .8-3.2l.5-3c.2-1 .5-2 1-2.5.5-.7 1.3-1 2.5-1 .2 0 .4.3.5.5.2 0 .3.4.4.6v.8c.4.8.6 1.5.7 2 0 .8.4 1.5.5 2.3 0 .8.3 1.5.5 2.2l1 2.2v1c.3-.3.5-.5.7-1 .2-.2.2-.6.4-1l.3-1c0-.4.3-.6.5-1-.2-1-.3-1.7-.2-2.5 0-1 .2-1.8.4-2.6 0-.7.3-1.5.6-2.3.2-.6.2-1.3.2-2-.5-.5-1-1-1.3-1.5-.4-.5-.6-1-.6-1.5.2-.2.6-.3 1-.3h2.5c.5 0 .7-.4 1-.5.5-.5 1-.5 1.4-.2l1.5 1.2c.3.8.3 1.2.2 1.7zm27.7 19c-.2 0-.3.4-.4.5l-.5.6c-.4 0-1 0-1.4.2h-2.9l-1.6-1v-1.5c0-.5-.3-1-.8-1.5-1 1-2 1.8-3.2 2.3-1 .5-2.3 1-3.4 1.2-1.2.3-2.4.4-3.6.5h-3.7c-3-2-4-4.8-3-8.8.8-1 1.5-1.7 2.3-2.2 1-.5 2-1 2.8-1 1-.3 2-.5 3-.5h3.2c1 0 2-.2 3-.5 1 0 2-.4 2.7-1v-1.5c0-.6 0-1-.2-1.6 0-.4-.3-.8-.5-1-.3-.4-.7-.6-1-.6-3.2-1-6.2-1-9 0 0 .3.3.4.4.6 0 .3 0 .4.2.6.2.3.2.5.2.8h-.6l-.5.5s-.5 0-.7.2h-2.3c-.2 0-.4 0-.5-.2-.3 0-.4-.4-.4-.5-.5 0-.8-.2-1-.6v-1.6c.6-1 1.6-1.7 2.7-2.3l3.5-1c1.2-.2 2.4-.2 3.5 0 1.2 0 2.3.2 3.3.4 1 0 2 .2 3 .7.7.6 1.5 1.3 2 2.3.3 1.2.4 2.6.5 4v4l-.3 3.6v3.2c0 .5.5 1 .8 1 .4 0 .8.2 1 .3.5.2.8.2 1.2.2.4 0 .6.2 1 .4h2c-.5.4-.5.6-.6 1zm27.2.5c-.4.3-1 .6-1.4.6-.2 0-.6 0-1 .2h-3.2c-.6-.2-1-.6-1.6-1v-3l-2.3 2c-.8.6-1.7 1-2.6 1.4-1 .4-1.8.6-2.7.7-1 0-2 0-3-.2-.4-.2-.8-.4-1-.8l-1-1c0-.4-.2-.8-.3-1-.2-.5-.4-.7-.7-1v-12.7c0-.2 0-.5.2-.7 0-.3 0-.5.2-.8v-.7c0-.2 0-.5-.4-.7-.4-.3-1-.4-1.4 0-.6 0-1 0-1.4.2h-1.2c-.4 0-.7-.5-1-1.2.6-.7 1.2-1.2 1.7-1.4.7-.3 1.3-.4 2-.4h1.7c.6 0 1 0 1.6-.2l1 2V326c0 .6 0 1 .3 1.2l.7.6c.4 0 .6.3 1 .3h1c1 0 2.2-.2 3-.7 1-.5 1.7-1 2.3-1.8.7-.7 1.2-1.6 1.8-2.5l1.6-3v-7.7l-1.3-1-1-.2c-.5 0-.8 0-1.2.2h-1.3v-1.6l1.5-.4h1.8c.7 0 1.3 0 2-.2.5 0 1-.2 1.4-.4l.4 1.5v3.8c0 .6.4 1 .6 1.5-.5 1.5-.7 3.2-.8 5v4.7c0 .3 0 .5-.3.8-.2.2-.2.4-.3.7v.7c0 .3 0 .5.4.7.5.2 1 .2 1.5 0 .5 0 1-.2 1.3-.3h1.3c.4 0 .7.5 1 1.2-.2.6-.5 1-.8 1.5zm28.7 0h-1c-.5 0-1-.3-1.4-.3H294l-1.3.3h-1.5c-.2 0-.6 0-1 .2h-2.7c-.4-.2-.8-.6-1-1 0-.2.4-.4.6-.6.2 0 .5 0 .7-.2h.7c.3-.4.5-.5.8-.5h.6s.3 0 .3-.2c.2 0 .2 0 .2-.3-.4-.5-1-1-1.4-1.7l-1.5-2.2c-.4-.7-1-1.6-1.7-2.3-.6-.8-1.2-1.6-2-2.3-.4.3-.7.5-1 1-.5.2-.8.6-1.2.8l-1 1c-.4.4-1 .6-1.3.8.3.5.5 1 .3 1.5 0 .5 0 1-.2 1.5v2.9c.6 0 1 0 1.6-.2.4 0 .8 0 1.3-.2h1c.3 0 .6 0 .8.4 0 1 0 1.4-.5 1.7-.3.2-.7.3-1.2.2-.4 0-.8 0-1.4-.2-.6-.2-1 0-1.6 0-.5.3-1 .4-1.5.4l-1.4.2h-1.4c-.5 0-1 .2-1.4.4-1-1-1-2 0-2.7.2-.8.5-1 .7-1h.6c.3.2.6.5 1 .5s.8 0 1.3-.6l-1-21v-.7l.3-1.2v-1c0-.3 0-.6-.3-.8h-1c-.3.2-.6.2-1 .2 0 0-.6 0-.8-.2-.4 0-.6-.5-1-1v-1l.7-.3h.8c.2 0 .5-.3.5-.5.4.2 1 .4 1.4.4h2.6c.3 0 .6.2.8.5v5c0 1.7 0 3.3-.3 5v4.6c0 1.6.2 3 .4 4.5l2.4-1.5c1-.6 1.7-1.2 2.4-1.8 1-.6 1.7-1.4 2.5-2 .8-.8 1.5-1.5 2.3-2 0-.4-.3-.6-.7-.8l-1-.5-1-.6c0-.4 0-.7.6-1.2 1 0 1.8 0 2.8-.2h2.8c.8 0 1.7 0 2.5.2 1 0 1.6.5 2.3 1 0 .5 0 1-.2 1.3-.3.3-.5.4-.7.4h-1c-.3-.2-.6-.3-1-.3h-1c-.2 0-.5.3-.6.6-.5.4-1 1-1.7 1.4l-2 1.5c-.5.4-1 1-1.7 1.4-.5.4-1 1-1.2 1.4l2 2.6c1 1 1.5 1.7 2.2 2.6l1.8 2.5 1.6 3 1.6-.3 1.5-.4c.5 0 1 0 1.3.2.3.3.4.6.4 1.4-.2 0-.3.4-.3.5zm21.7-10.6c0 .3-.5.5-1 .8-2.8-1-5.6-1-8.3 0-.8-.3-1.4-.4-2-.4h-1.7c-.5 0-1 0-1.6.3h-1.3c-.5.6-.7 1-.6 1.3 0 .4.2.7.4 1l.8 1.2c.2.3.3.8.3 1.2.3.5.5.8 1 1 .2.3.6.6 1 .7l.8.6c.4 0 .6.3 1 .6 1.8 0 3.4-.5 4.8-1.4 1.6-.8 2.7-2 3.6-3.3.5 0 1 .2 1.4.6.3.4.6 1 .6 1.4 0 .5 0 .8-.4 1.2l-.8 1-1.2 1.2-1.4 1.2c-.7.2-1.5.5-2.5.6-1 .2-2 .2-3.2.2-1 0-2 0-3-.3s-1.8-.7-2.6-1.5l-1.5-2c-.7-.5-1.2-1-1.7-2-.5-.5-.8-1.2-1.2-2-.3-.6-.4-1.5-.4-2.5v-.7l.5-.8.5-1v-1.2l1-2.8c.5-.8 1-1.7 1.7-2.5.6-.8 1.4-1.5 2.2-2 1-.6 1.7-1 2.7-1.2 1.5 0 3 0 4 .5 1.4.4 2.5.8 3.6 1.5 1 .6 2 1.4 2.8 2.3.8 1 1.4 2 2 3v1.6c.2.4.2.8.2 1.3.3.7.3 1 0 1.4zm23.3 0c0 .3-.4.5-1 .8-2.7-1-5.5-1-8.3 0-.7-.3-1.3-.4-2-.4h-1.6c-.4 0-1 0-1.5.3H327c-.4.6-.7 1-.5 1.3 0 .4 0 .7.3 1l.7 1.2c.3.3.4.8.4 1.2.2.5.4.8.8 1l1 .7 1 .6c.3 0 .5.3.7.6 2 0 3.6-.5 5-1.4 1.5-.8 2.6-2 3.5-3.3.5 0 1 .2 1.4.6.3.4.6 1 .6 1.4 0 .5-.2.8-.4 1.2-.2.4-.5.7-1 1-.2.5-.6.8-1 1.2L338 330c-.7.2-1.6.5-2.5.6-1 .2-2 .2-3.2.2-1 0-2 0-3-.3s-2-.7-2.7-1.5l-1.6-2c-.6-.5-1-1-1.5-2-.5-.5-1-1.2-1.2-2-.4-.6-.5-1.5-.5-2.5v-.7l.5-.8c0-.4.2-.6.3-1v-1.2c.4-1 .8-1.8 1-2.8.6-.8 1-1.7 1.8-2.5.6-.8 1.3-1.5 2.2-2 .8-.6 1.7-1 2.7-1.2 1.4 0 2.7 0 4 .5 1.3.4 2.4.8 3.5 1.5 1 .6 2 1.4 2.7 2.3 1 1 1.5 2 2 3v1.6c.2.4.2.8.2 1.3.3.7.2 1 0 1.4z"/><path d="M233 319.5c0 .3-.2.6-.6.6l-1.4.2c-.7.3-1.4.5-2.2.6h-7l-1.7 1c-.4.6-.7 1.3-.8 2.3 0 1 .2 2 .6 3 .3 1 .8 1.5 1.3 2 1.3.3 2.5.3 3.5.3 1-.2 2-.4 2.8-.8.8-.3 1.7-.8 2.4-1.4.7-.5 1.6-1 2.3-2 .7 0 1-.2 1.3-.6.3-.3.3-.8.3-1.4 0-.6 0-1.2-.4-1.8v-1.7zM315.4 315.3c0-.2-.3-.4-.6-.7-.2-.2-.5-.3-.7-.3-.4-.3-1-.5-1.5-1l-1.7-.6c-.6 0-1.2-.3-1.7-.3s-1 .3-1.4.8l-1 1.2-1.2.8-1 1c-.5.5-.6 1-.6 1.7h3c1 0 2 0 3-.2 1.2 0 2-.2 3.2-.3 1 0 2-.3 3-.5l-.2-.8c0-.3-.2-.6-.4-1zM338.8 315.3c0-.2-.4-.4-.6-.7-.2-.2-.5-.3-.7-.3-.5-.3-1-.5-1.6-1l-1.8-.6c-.6 0-1.2-.3-1.7-.3-.6 0-1 .3-1.6.8l-1 1.2-1.2.8c-.4.4-.8.6-1 1-.5.5-.6 1-.6 1.7h3c1 0 2 0 3-.2l3.2-.3c1 0 2-.3 3-.5l-.2-.8c0-.3-.3-.6-.4-1z"/></svg>