<svg xmlns="http://www.w3.org/2000/svg" width="350" height="350"><path d="M1.2 284.1l1.34-1.46h3.03v-.97h1.7v-3.5h.96v-4.5h-1.2v-1.8H9.2s-.12-.13.97-.37c.24 0-.12-1.1.12-1.33.23-.24-.5-.97-.25-1.1 0 0-.12-3.38-.24-3.86-.12-.36-.24 0-.24-.84 0-.37.25-.73.25-.97.13-.25-.36-.25-.48-1.1 0 0 .12-.73.6-1.58.25-.36-.24 0-.36-.48 0-.24.12-.85 0-1.1-.12-.1-.36.13-.36-.1v-.37c0-.25-.36.24-.36-.13 0-.24-.12-.48 0-.84.12-.37.36-.85.36-1.1 0-.23-.36-.48-.36-1.08-.12-.6-.12-1.33-.12-1.33-.25-.14 0-.98-.13-.98s-.37-.5-.25-.97c.12-.5-.36-.12-.36-.6 0-.13.1-.25.1-.37s.62.12.5-.12c0-.12-.25-.5-.13-.73.25-.36.25-.36.25-.73 0-.12.12.5.36.5 0 0 0-.25.36-.62.12-.12 0 .25.12.5.12.23.25.23.12.6-.24.48-.48.6-.48.6.12.24.48-.12.6.24 0 .12-.12.36-.12.5 0 .1-.48.23-.36.23s-.12.24-.12.36c.12.37.12.37.36.74.12.24-.12.72.12 1.1.25.23.5 1.44.6 1.68.13.5.37.85.5.97 0 .1.24.72.36.72.24 0 .24-.37.24-.37 0-.12-.24-.48-.12-.6 0 0-1.1 0-.85-.24.13-.1.86 0 .86-.23 0-.25-.73-.13-.85-.25-.1-.12.98 0 .98-.24 0-.12-.97-.73-.97-.85s1.34.73 1.34.6c0-.1-.12-1.08-.12-1.2.12-.12.5.97.73 1.1.12.1.12 0 .24-.13.1-.25.48-.85.72-.73 0 0-.37.36-.5.85 0 .12 0 .36.26.24.36-.24.84-.36 1.1-.36.1 0-1.1.6-.86.72.24.12.97-.12 1.33 0 .36.12-1.33.25-1.2.37.1.1-.13.47 0 .6.1.1.1.35.1.48 0 .24-.1.48-.1.6 0 .24.35.24.35.24.37.12 1.33 1.34.97 1.46-.12 0 .24.84.6.6-.1 0 .73-1.1.98-.85.36.5.84.37.6.6-.12.25-.73.86-.36.86.35 0 .1.35.1.47 0 .24-.48.85-.48.97-.24-.12-.12 1.33-.48 1.58l-.73.12s.5 2.06.38 2.54c-.25.6-.37 1.2-.37 1.7 0 .6.13 1.33.13 1.33-.24.13 0 2.2.13 2.2h1.7v1.8h-.98v4.48h.73v3.76h2.2l-.13.72h4.1v1.7h5.46v1.7h9.1v1.8h6.77v-8.95h4.84v-5.56h.73v-3.88h1.94v-3.4h1.7v-3.13h5.57V246.8h4.85v1.45h4.84v17.92h1.82v4.24h6.05v-1.92h5.45v-1.82h1.2v-4.72h.74v-19.86h.97v-1.34h4.83v2.43h.5v.96h.6v17.68h.84v4.74h.6v11.74h4s-.24-23-.24-34.4c0-1.56.24-4.95.24-4.95l1.94-2.06v-2.67s-1.32-1.8-1.57-2.9h1.58v-.97h5.34l.36.36h1.58v2.9h-1.34v4.48h.85v8.96h1.32l2.42-9.7h1.1v4l1.8 2.55v-20.1h1.1v-1.95h2.3v2.42h4.72v35.85l.85.6v17.56h2.3v-3.75h.86v-24.7h.97v-5.57h.85v-3.88h.85v-1.94h1.2v-8.47h1.22v-11.15h.48v11.15h.97v8.47h1.1v1.94h1.44v3.88h.6v6.17s.86-.85 1.22-1.33l1.2-1.7v-12.47h1.22v-16.95h3.76v-8.48l2.66-3.27v-2.18h1.45l.5-.48h.96v-1.46h.85v1.47h1.82v1.1h1.2v1.68l2.07 3.27v8.48h3.75v19.98h2.05v-13.2h.85v7.02h1.1v-1.2h1.32v-7.64h3.52v-13.32H167v13.32h3.63v7.4h1.1v.84h.96v-6.42h.95v40.93h2.8v-11.25h2.53V219.9h.73v-1.68h1.1v-1.82c-.12.12 2.42-3.4 2.42-3.4v-7h.5v7l2.4 3.4v1.46h1.1v1.7h1.2v35h1.83v9.92h1.7v-9.33h1.2l1.2 1.94h7.28v-17.7h1.33v-10.04l1.7-3.4v-1.2h.72v-3.15h.85v3.4h.48v.97h1.23v1.45l1.45 1.58v10.4h.6v20.1h1.34v-15l3.63-3.4h5.2v-36.93h.85v-7.14h3.27v-5.2s.6.1.85 0c0 0 0-2.8 1.1-3.16 0-1.57.84-2.42 1.93-3.03v-14.17h.85v14.17c.6.24 1.93 1.33 1.93 3.03 0 0 .37.24.5.97.23.97.23 2.18.23 2.18h.6v3.75h1.34v3.03h2.18v-2.54h1.1v7.75h1.2V241h6.05v20.7h1.1v-4.85h.72v-2.42h-.73v-.85h1.34v-36.33h1.1v-9.93h.7v-1.82h.62v-4.48h.97v-2.66h.72v-1.33h.37s.24-2.43 1.2-2.9v-10.67h.6v10.66c.98.48 1.22 2.9 1.22 2.9h.25v1.34h.25v2.66h.85v4.48h.72v1.82h.97v9.93h.72v36.33h1.82v.85h-1.1v2.42h1.34v4.12h.97v9.68h1.7v16.96h1.57v-17.3h.84v-1.1h.73v-9.44h.72v-5.7h.48v-1.8h.73v-1.83h1.1v-1.7h1.32v1.1h3.5c1.7.12 2.8.72 3.04 2.42.1.72 0 2.54 0 2.54h1.32v5.44h1.2v9.57H284v-8.6c2.66-2.53 5.8 1.46 7.26 3.04v1.57h.97v21.8h1.46v-22.4h1.58v-4.72h8.1v.6h9.58v1.7h.48v2.55h.73v14.17h1.7v-5.1h.36v-2.53h.6c.48-2.55 4.1-2.55 4.35 0h1.1v2.54h.6v10.67h4.96v-.97h1.1V283h1.22v.73h.72V287s1.33-.12 2.06 0v-3.4h1.58v-.35h1.7v.36h1.08v1.6h.73v-6.67h.6v-6.18h.84v-.97h.73v-.73h2.9v.73h.85v.97h.73v6.18h.85v6.66h.6v1.92h1.82v61.64H.36c.85-5.8.85-64.66.85-64.66z"/><g fill="#fff"><path d="M138.3 332.42c-.5-.6-.85-1.22-1.34-1.82-.48-.6-.85-1.2-1.45-1.82l-13.56-16.1h-.12v14.9c0 .84 0 1.45.12 1.8.13.5.25.86.5.98.23.24.6.36 1.08.48.48.12.97.12 1.7.24v.97h-8.24l-.12-.85c.72-.12 1.2-.12 1.7-.24.48-.12.84-.24 1.08-.6.25-.25.5-.73.6-1.33.13-.6.13-1.34.13-2.43v-12.7-1.7c0-.5 0-.86-.12-1.1 0-.24-.12-.48-.24-.72-.1-.25-.24-.37-.36-.6-.12-.25-.36-.37-.48-.62-.12-.12-.36-.24-.6-.36-.25-.12-.5-.12-.85-.24-.36 0-.72-.12-1.2-.12v-.97h5.2l16.23 19.25h.12v-14.77c0-.85 0-1.45-.12-1.82-.12-.48-.24-.84-.48-.97-.25-.24-.6-.36-1.1-.48-.48-.12-.96-.12-1.7-.24v-.97H142.78v.85c-.6.12-1.2.12-1.57.24-.48.12-.73.24-.97.6-.24.25-.36.73-.48 1.34-.12.6-.12 1.33-.12 2.42v19.13l-1.34.37zM158.03 329.27c-.48.72-1.1 1.33-1.7 1.7-.6.48-1.08.72-1.7.96-.47.24-.96.36-1.44.5-.5.1-.86.1-1.1.1-1.1 0-2.06-.24-2.9-.6-.86-.36-1.7-.97-2.3-1.7-.6-.72-1.1-1.45-1.46-2.42-.37-.95-.5-1.92-.5-2.9 0-1.08.26-2.17.62-3.14.36-.97.97-1.82 1.7-2.54.72-.73 1.45-1.22 2.3-1.7.84-.36 1.8-.6 2.78-.6.73 0 1.45.12 2.18.36.73.24 1.33.6 1.82 1.1.48.47.97.96 1.2 1.68.37.6.5 1.34.5 2.18v.74c-.13.48-.37.73-.73.73h-9.56c0 1.2.24 2.18.48 3.02.37.85.73 1.46 1.34 2.06.48.5 1.1.97 1.8 1.2.62.26 1.34.38 1.95.38.74 0 1.34-.12 1.95-.37.6-.25 1.33-.73 1.93-1.46l.85.73zm-3.75-6.66c.36 0 .6-.1.6-.24.12-.12.12-.36.12-.6 0-.5-.12-.85-.24-1.33-.12-.37-.36-.73-.72-1.1-.25-.36-.6-.48-1.1-.72-.48-.1-.96-.23-1.45-.23-.37 0-.85.12-1.22.24-.36.25-.72.5-1.1.86-.35.36-.6.85-.84 1.33-.24.47-.48 1.08-.48 1.8h6.42zM177.9 317.64h6.65v.85c-.48.1-.97.1-1.2.23-.37.12-.6.12-.73.36-.25.12-.37.36-.6.6l-.62 1.2c-.24.62-.6 1.46-.96 2.3-.37.86-.73 1.83-1.1 2.8-.36.97-.72 2.06-1.2 3.15-.37 1.1-.85 2.18-1.22 3.4l-.96.1c-.73-1.93-1.46-3.75-2.18-5.44-.73-1.8-1.46-3.62-2.18-5.56-.73 1.8-1.46 3.5-2.18 5.33-.73 1.7-1.46 3.63-2.18 5.57l-.97.12c-.6-2.06-1.33-4-1.94-5.94-.6-1.93-1.33-3.87-2.06-5.8-.24-.5-.36-.86-.48-1.1-.13-.24-.26-.48-.5-.6l-.72-.37c-.25 0-.73-.12-1.22-.12v-.97H166.76v.85c-.73.13-1.34.13-1.58.25-.37.12-.5.37-.5.73s0 .73.13.85c.38 1.33.86 2.54 1.23 3.87.48 1.33.84 2.67 1.33 4 .6-1.58 1.33-3.15 2.06-4.85.72-1.7 1.45-3.5 2.18-5.32l1.1-.13c.6 1.7 1.32 3.4 2.04 5.1.73 1.7 1.46 3.5 2.18 5.2.25-.6.5-1.2.73-1.82.24-.6.5-1.33.73-1.94.24-.72.48-1.33.72-2.05.25-.74.5-1.35.6-1.95.13-.5.25-.85.25-.97 0-.36-.12-.6-.48-.73-.37-.12-.97-.24-1.82-.36l.24-.86zM206.35 324.18v-1.2c0-.37-.12-.74-.12-1.1l-.36-1.1c-.25-.35-.5-.96-.85-1.56-.5-.85-.97-1.82-1.7-2.9-.6-1.22-1.45-2.55-2.42-4.25-.36-.6-.72-1.2-.97-1.57-.24-.37-.6-.73-.84-.97-.38-.24-.74-.37-1.1-.5-.37-.1-.97-.23-1.58-.23v-.97h9.2l.13.85c-.97.12-1.58.12-1.94.36-.36.12-.48.37-.48.73 0 .24 0 .48.12.73.13.24.25.6.5.97l4.6 8.47 4.47-8.1c.25-.5.5-.86.62-1.22.12-.37.24-.6.24-.85 0-.36-.24-.6-.6-.73-.37-.12-1.1-.24-2.06-.36v-.97h8l.1.86c-.6 0-1.2.12-1.7.24-.47.12-.83.36-1.2.6-.36.25-.72.73-.97 1.22-.36.48-.72 1.1-1.2 1.94-.85 1.45-1.58 2.66-2.2 3.87-.6 1.1-1.08 2.06-1.44 2.8-.37.7-.62 1.2-.86 1.68-.24.37-.36.86-.36 1.1-.12.36-.12.6-.12.97v6.18c0 .36 0 .72.12.96.12.26.24.5.48.74.25.12.6.36 1.1.36.48.13 1.08.13 1.93.13v.96h-9.95l-.12-.85c.73 0 1.45-.12 1.94-.25.48-.12.84-.24 1.1-.48.23-.24.35-.6.47-.97.12-.36.12-.97.12-1.57v-4zM220.16 325.03c0-1.1.24-2.06.6-3.03.37-.97.97-1.82 1.58-2.54.72-.73 1.45-1.33 2.42-1.7.97-.36 1.94-.6 3.03-.6 1.2 0 2.17.24 3.13.6.97.37 1.82.97 2.43 1.58.72.72 1.2 1.45 1.57 2.42.36.97.6 1.94.6 2.9 0 1.1-.24 2.2-.6 3.15-.36.98-.97 1.83-1.57 2.56-.73.72-1.46 1.33-2.43 1.7-.96.36-1.93.6-3.02.6-1.2 0-2.17-.24-3.14-.6-.97-.37-1.7-.98-2.42-1.58-.73-.73-1.2-1.45-1.58-2.42-.36-.97-.6-1.94-.6-3.03zm8 6.3c.72 0 1.32-.13 1.93-.5.47-.35.96-.84 1.32-1.32.36-.6.6-1.2.73-1.93.12-.72.24-1.33.24-2.06 0-.83-.13-1.68-.25-2.53-.13-.85-.5-1.57-.85-2.3-.37-.73-.85-1.2-1.58-1.7-.6-.48-1.33-.6-2.3-.6-.72 0-1.45.12-1.93.48-.5.37-.98.85-1.35 1.33-.36.6-.6 1.22-.72 1.94-.12.73-.25 1.33-.25 2.06s.13 1.58.25 2.42c.24.85.48 1.58.84 2.3.37.73.85 1.34 1.58 1.7.73.48 1.45.73 2.3.73zM246.56 332.05h-8.36l-.12-.85c.6 0 .97-.12 1.33-.24.37-.12.62-.24.74-.48s.24-.5.36-.85c0-.36.12-.85.12-1.57v-6.54c0-.5 0-.85-.12-1.1 0-.24-.12-.48-.36-.6-.12-.12-.37-.24-.73-.36-.35-.12-.7-.12-1.32-.24l-.12-.73c.48-.13.97-.25 1.45-.25l1.46-.37c.5-.12.85-.24 1.34-.36.36-.12.72-.24.97-.36l.36.24c-.12.48-.12 1.1-.12 1.57v1.58c.5-.6.98-1.2 1.46-1.7.36-.48.85-.72 1.1-.97.35-.24.6-.36.96-.48.24-.12.6-.12.85-.12.24 0 .48 0 .72.12.24 0 .48.12.6.24.24.12.36.24.48.5.13.1.25.35.25.6 0 .35-.25.72-.6 1.08-.5.36-.86.73-1.46 1.1-.37-.25-.6-.5-.85-.6-.24-.14-.6-.26-.97-.26-.36 0-.85.12-1.2.5-.5.35-.86.84-1.1 1.44-.12.24-.12.36-.12.5v6.77c0 .36 0 .72.12.97 0 .24.24.48.36.6.26.12.5.24.98.24.37 0 .97.12 1.7.12l-.12.85zM256.5 324.67c-.38 0-.5.12-.5.24v4.37c0 .36 0 .72.12.97 0 .24.12.48.37.6.1.12.35.24.7.24.38 0 .74.12 1.35.12v.97H250.8v-.84c.6 0 1.08-.13 1.45-.25.36-.12.6-.24.85-.48.24-.24.36-.5.36-.85 0-.36.12-.85.12-1.57v-19.02c0-.48 0-.84-.12-1.2 0-.25-.12-.5-.36-.6-.13-.13-.5-.25-.73-.38-.36-.12-.85-.12-1.33-.24l-.12-.72c.48-.13.96-.25 1.57-.37.47-.12 1.08-.24 1.56-.36.5-.13.97-.25 1.34-.37.36-.12.72-.25.97-.37l.24.25c-.1.5-.1.97-.1 1.46 0 .6-.13 1.1-.13 1.7v15.37c0 .12 0 .12.12.12h.35c.36 0 .85-.12 1.2-.36.37-.25.86-.6 1.34-1.1l1.33-1.45c.36-.5.72-.85.84-1.1.12-.23.25-.48.25-.6 0-.24-.13-.36-.5-.48-.23-.12-.72-.24-1.2-.24l.12-.73h4.85c.6 0 1.34 0 2.18-.12l.13.85c-.38 0-.74.12-.98.12-.37 0-.6.12-.97.24-.24.1-.6.23-.85.35-.36.12-.6.37-.97.6-.72.6-1.45 1.22-1.94 1.7-.6.6-.97 1.1-1.34 1.34-.24.23-.36.35-.36.47s0 .24.12.36l3.5 4.12c.62.73 1.1 1.33 1.46 1.7.37.36.73.72 1.1.96.36.26.6.38.96.5.37.12.85.12 1.34.12v.97H260.97l-.12-.86c.36 0 .72-.12 1.1-.12.23 0 .47-.24.47-.48 0-.13 0-.25-.12-.37s-.24-.24-.36-.48l-4-4.6c-.12-.13-.36-.26-.48-.38-.5.25-.73.25-.97.25zM286.4 319.46c0 1.57.24 3.15.6 4.6.37 1.45.97 2.66 1.82 3.75.85 1.1 1.82 1.95 3.15 2.56 1.2.6 2.66.97 4.36.97.97 0 1.82-.13 2.66-.37.84-.24 1.57-.72 2.17-1.2.6-.5 1.1-1.22 1.58-1.95.48-.83.84-1.68 1.33-2.77l.97.24c-.24 1.1-.5 2.18-.73 3.15-.12.97-.36 2.06-.48 3.15-1.34.36-2.67.72-4 .97-1.33.24-2.66.36-4 .36-1.93 0-3.63-.24-5.32-.85-1.58-.6-3.03-1.45-4.24-2.54-1.2-1.08-2.06-2.4-2.8-3.87-.6-1.57-.96-3.27-.96-5.08 0-2.18.37-4.12 1.2-5.7.86-1.57 1.95-3.02 3.28-4 1.34-1.08 2.9-1.93 4.73-2.4 1.8-.5 3.75-.86 5.7-.86 1.08 0 2.17.1 3.26.23 1.2.12 2.3.37 3.26.6-.12 1.1-.12 2.07-.24 3.16v3.14l-1.1.12c-.12-.97-.24-1.82-.6-2.67-.36-.73-.73-1.34-1.33-1.82-.62-.5-1.22-.85-1.95-1.1-.73-.24-1.57-.36-2.42-.36-1.7 0-3.15.24-4.48.85-1.33.48-2.42 1.33-3.27 2.18-.85.97-1.58 2.06-1.94 3.5-.12.86-.24 2.3-.24 4zM315.83 332.05h-8.01v-.85c.6 0 .97-.12 1.34-.24.36-.12.6-.24.72-.48.23-.24.36-.5.36-.85 0-.36.12-.85.12-1.57v-6.66c0-.5 0-.85-.12-1.1 0-.24-.13-.48-.37-.6-.13-.12-.37-.24-.73-.36-.37-.12-.73-.12-1.22-.25l-.12-.73c.5-.12 1.1-.24 1.58-.37.5-.12 1.1-.24 1.46-.36.48-.12.85-.24 1.2-.36.37-.12.62-.24.86-.24l.24.24c0 .36-.12.85-.12 1.33 0 .5 0 .98-.12 1.46v9.21c0 .36 0 .72.12.97 0 .24.12.48.36.6.12.12.5.24.85.24.36 0 .85.12 1.45.12l.13.85zm-5.94-21.07c0-.6.1-.97.48-1.33.36-.36.84-.5 1.33-.5.6 0 1.1.14 1.46.5.36.36.5.85.5 1.33 0 .6-.14.97-.5 1.33-.36.38-.85.5-1.45.5s-.96-.12-1.32-.5c-.25-.23-.5-.7-.5-1.32zM322.24 312.3c0 .38-.12.86-.12 1.47 0 .48 0 1.1-.12 1.57V317.87l4.36-.12.24.12-.12 1.34H322v8.23c0 .6.12 1.2.24 1.57.13.5.37.73.5.97.23.24.47.48.84.48.36.12.6.12.96.12.37 0 .73 0 1.22-.12.36-.12.84-.12 1.2-.24l.13.96c-.62.37-1.34.6-2.2.85-.72.24-1.44.37-2.17.37-.5 0-.97-.13-1.33-.25-.37-.12-.73-.36-1.1-.6-.36-.37-.6-.73-.72-1.2-.12-.5-.24-1.1-.24-1.83v-.73-1.44V319.34h-2.3l-.12-.12.12-.97 2.42-.12v-2.06-1.33-1.34c.24-.12.48-.24.85-.36.25-.12.5-.24.85-.36.25-.12.5-.25.73-.25.24-.12.36-.12.5-.24l-.14.1z"/><path d="M344.9 318.37c-.5.12-.98.12-1.22.24-.36.13-.6.25-.85.37-.24.12-.48.37-.6.73-.25.36-.37.73-.6 1.2l-1.34 2.68c-.5.96-.98 2.05-1.47 3.27-.48 1.2-.96 2.3-1.45 3.5l-1.45 3.64-1.1 2.53c-.35.85-.72 1.7-1.08 2.43-.36.72-.85 1.45-1.2 2.05-.38.62-.86 1.1-1.22 1.47-.85.72-1.7 1.1-2.55 1.1-.48 0-.84-.13-1.2-.38-.37-.25-.5-.6-.5-1.1 0-.36.13-.72.37-.96.24-.25.5-.5.85-.73.24 0 .36.13.48.13h.5c.35 0 .7 0 1.08-.12.36-.1.6-.23.97-.6.6-.6 1.2-1.57 1.8-2.66.62-1.2 1.22-2.54 1.83-4.12v-.24l-.12-.36-1.1-2.9c-.35-.98-.72-2.07-1.2-3.04-.37-.97-.85-2.06-1.2-3.03-.38-.96-.74-1.8-1.1-2.66-.25-.5-.37-.98-.6-1.22-.13-.36-.37-.5-.6-.73-.26-.12-.5-.24-.86-.36-.37-.13-.73-.13-1.2-.13v-.97h7.5v.85c-.73.12-1.22.24-1.46.36-.24.13-.36.37-.36.62 0 .12 0 .24.12.48 0 .24.12.36.24.6l3.4 8.85 3.75-8.84c.24-.6.24-.96.24-.96 0-.37-.1-.6-.48-.73-.24-.1-.84-.23-1.57-.23v-.85h6.42l.12.85z"/></g><path fill="none" stroke="red" d="M.6.6h348.77v348.77H.6z" stroke-width="1.21"/></svg>