<svg xmlns="http://www.w3.org/2000/svg" width="250.73" height="255.52"><path d="M199.24 211.1c-2.58-6.55-9.3-4.14-10.67-.18-1.38-4.14-8.27-6.55-10.68 0-2.94 7.74 10.67 16.35 10.67 16.35s13.6-8.6 10.67-16.18z"/><path stroke-miterlimit="10" d="M3.34 73.27l.17-.7.18-.33.17-.35.17-.52.18-.86.34-.35-.17-.17.17-.7v-.33l.17-.18.2-.18.33-.17h.17v-.34h.52l.17-.17h.16l.17-.17.35-.34h.17l.17-.17h.18v-.18l.17-.17v-.17l.17-.17.17-.18.53-.5v-.18l.17-.35v-.17l.17-.52v-.34l.18-.17.17-.35.17-.17.33-.17.18-.18v-.17l.18-.16-.17-.34-.17-.18v-.17l-.17-.34v-.17 1.2l.17-.16.18-.17.18-.18.34-.17h.18l.17-.34.17-.68v-.35l.17-.34.53-.86.34-.35v.18l.18-.18v-.17h.34l.33-.17.18-.17h.35l.17-.16v-.53l.35-.17.34-.35.18-.17h.7v-.68l.16-.17.35.17.16-.17.17-.17.35.17.17-.17h.17l.17-.18h.5l.36-.17.17-.17h.17l.34-.17h.51v.35-.51l.17-.18H19l.35-.5.34-.2h.17v-.16h.34v.17l.7.18.34.17h.51l.17.17.18.16.18-.17.17-.18.17-.17-.17-.18v-.34l.17-.17.17-.17.17-.2v-.16l.17-.17v-.17l.17-.18.18-.34v-.17l.17-.34.35-.34.17-.17h.17l.35-.18.33-.17h.17v.17l.7.35.5.17.35.16.35.18h.34l.18-.18h.17v-.17.5-.16l.16-.18v-.17l.17-.18v-.86l.17-.17.18-.36v.35l.17-.36h.17v-.34H29l.17-.17.17-.18.34-.17h.17l.35-.17h.34l.18-.16v-1.9l.17-2.4v-1.38l.16-2.4V40.2l.17-.85v-1.9l.17-.17V35.4l.18-4.83.17-.18v-.7l.17-2.58V25.73l.17-1.54v-.18l.16-3.27V18.86l.18-1.73V16.1l.17.17v.35h.18l.17.17h.18l.17.33.17.18h.17l.35-.34.16-.17.52.5h.34l.34-.17h.18l.17.18.35.18h.18l.17-.17.17-.17.17-.17v-.17l-.17-.35.17-.18.17-.17.36-.34.17-.17h.17l.18-.2.17-.16-.17-.17v-.17l-.18-.18h-5.33l-.18-.17-.18-.17.17-.17.17-.16.17-.18.17-.17.18-.35H33.47l.17-.18.52.18h.34l.18-.18.17-.34v-.68l.17-.17.52-.35.34-.17h1.03l.7.86.18.2.86.85.34.34.35.16.17.18.17-.18h.17l.86.7.52.34.52.17.68.17.52-.17.35-.17 1.36-.35H45l.87-.17.7.17.16.17.7-.17 1.2-.17 1.03-.52.34-.17.17-.18.35-.17h.17l2.06-.7.34-.16h.17l.86-.36 2.07-1.03v-.16h.17l.52-.18h.33l.7.18.68.17 1.04-.16.35-.18.33-.34.86-.17.34-.18.52-.17.86-.34h.17V9.4l.5-.36.52-.17h.17l.17.17.34-.17H65l.35-.17h.17l.17-.18h.17v1.04l.35-.52.68-.52.86-.5.34-.18h.17l.35-.18h.52l.34-.17.34-.18.18-.34.7-1.04.33-.17.53-.17h.17l.17.17.17.34.18.2.5.33.36.17h.51l.5-.7.35-.33.18-.34.17-.18h.17l.17.18-.17.34-.17.17v.17l.17.2.35.16.68-.17.35-.2h.17v-.16l.17-.86.16-.17h.35l.35.18.18.17.5-.17h.18V4.9l.36-.16.17-.18.17-.34v-.17l.18-.35.68-.5.52-.2h.17l.18-.16v-.17l.34-.34.17-.35.17-.52.2-.17h.16l.34.34v.17l.52.18.34.17.35.18.18.17.35-.17.17-.35 1.03-.86.34-.17H86.15l.7.17.17.17 1.04 1.03.7.68 1.2 1.56.16.18v.52l-.17.18h-.17l-.17.17-.34.34-.5 1.04-.2.68-.16.52-.17.34-.17.35v.17l-.35.35-.68.67-.17.18-.17.34-.34.34h-.87l-.17.17-.17.18-.17.17.17.35-.17.34-.17.17-.7.36v.7l.17.33.34.85.7 1.38-.17.34-.17.35-.35.34-.67.52-.35.17-.34.17-.35.18-.18.17v.17l-.34 1.2v.35l-.18.33-.7 1.04-.33.34-.17.18v.18l.34.5.17.2.36.16.34.17H82.9l.16-.18.35-.17.18-.18.35-.34.17-.17.17-.18.17-.17h.17l1.56-.85.18-.17.86-.35.34-.17.86-.7.17-.16.52-.34v-1.21l.34-.34.34-1.03.17-.17.17.17 1.38 1.38.17.17.35.18.17.17.85.86.35.34.34.35.34.34h.18l.17.17 1.55 1.38 1.03.7h.18v.17l.35.18.34.17h.18l.34-.35.85-.17.35.35.5.34.18.16.18.17.17.18 1.2.7.7-.35.16.17.17.35.17.34.17.18.18.18.18.17.17.34v.17l.17.18.17-.18.52-.34.16-.17h.35l.18.17v-.17.17l.17.17h.34l.17-.5.17-.36h.17l.18-.16h.18l.17.17v.18l.17.18v.17h.17l.17-.17.35.34h.16v.52l-.17.17v.33l-.18.18-.18.18v.34h.18l.17-.17h.51v-.17h.18l.17.17h.17l.17-.17v-.17h.17l.17.18.17.17-.16.34.17.17v.34h.36v.36l.17.17h.17l.17-.17.35-.18.17.18.16-.18.17-.17.17-.16h.18v.17l-.18.18.18.18.34-.18.17.18.17.17v.17l.17.52.34.7.17.16.35.17.17.17-.17.17-.17.17v.17l.17.17h.17v.18h.35v.52l.17.7h.5v.16l.18.17.17.35V34l.17.18.17.35.17.17.17.17.17.35.18.34.17.17h.18v.17l-.18.35.18.17.17.17.17.17.17.17v.17l.18.18h.17v.52l-.18.17v.52h.17l-.18.16v.17l5 1.55 2.4.7h.17l.34.16.34.18h.17l1.04.34.33.17 1.38.35 1.4.34 1.54.52.86.17h.17l.17.18 2.58.7.35.16.34.17.36.2 1.55.33 1.73.52.86.17 1.54.34.17.18 1.9.5.7.2 1.9.5 3.95 1.04 2.24.68h.16l.52.18v.17h.17l.34.18.5.17.7.18h.17l1.38.34 1.38.34 2.58 1.56 1.4.86 1.7.87.18.16.35.34 3.27 1.9.17.17v.17l.17.17.17.2h.36l.17.16.35.17.17.17v.17h.17l.34-.17h.18l.17-.17-.16-.17-.18-.17.18-.2v-.16l.17.17h.53v.2l-.18.16v.34l.18.35h.34l.34-.18v-.17h.2v-.17.17h.16l.17.17h.17l.17-.17h.18l.17-.17.17-.17.34.17.17.17.18.17v.18l.17.34h.17l.18-.18.17-.17h.17l.35.17h.33l.17.17.17.16.18.35.17.35h-.17v.17l.17.18.17.17V60H175.53l.17.18h.18l.34.18h.18v-.18h.17l.34-.17.2.18h.16V60h.17v-.85l.17-.34.17-.34.18-.17h.17l.17.16v.18l.16.17.18.35.34-.17.34-.34.18-.18.17-.17h.7l.17.16h.52v-.17l.17-.18.17-.17h-.18.17v-.18l.16.18H182.25l.17.17v.33l.18.35V59l.17.17h.17v.52l.17.17.18.17h.35l.17-.16.17-.17v-.35l.18-.17h.34l.33.17.18.18v.34l.18.17h.52l.17.18.17.18.34.17.18.17v.17l.17.18.17.17h.17l.18-.17.34-.18h.33l.18-.17.18-.34v-.18l.17-.17.17.18h.17l.17.18.17.17.34.34.86.52.18.16.17.17v.35l-.18.17.17.17.16-.34.17-.17.18.18h.18l.34.17.17.17.17.18h.17l.34-.35.52-.17.34-.17.18-.17h.33v-.17h.17l.18.17v.53l.18.17.17.18.17.17H195.67l.18.17h.17l.17-.17v-.17l.17-.18h.35l.5.35.18.17.18.17.17.18.17.18.17-.18h.17l.34.18.18.17v.17l.17.17h.18l.5.18v.5H200.33v-.17h.52l.34.33v.36l-.18.17-.17.17-.17.18-.18.17v.34l.18.18.17.7.17.17.17.17.34-.17h.17l.35.34v.69l-.17.17-.17-.17-.16.17-.17.34v.17l-.35.34-.34.7h-.18l-.17.17h-.17l-.34.35v.33h-.18l-.17.17v.18l-.17.18h-.17v.34l.17.35.17.17.17.17.35.18h.5v.18h.18l.17.17v.17l-.17.17.17.35.17.17.17.16.34.17h.7v.18l.17.18h1.19l.18-.17.17-.17.17-.17v-.17h.17l.17-.18.17.17h.17l.18-.18.17-.18H205.84l.17-.17h.2l.16-.17h.52v.17h.17v.17l.17.35.17.33-.18.18h-.17l-.17.18v.17h.17l.17.17.34.17h.18l.17.17.18.17-.17.17h.18v.18h.17l.18-.17h.17l.17.18h.17l.35-.17.16-.16h.17l.17.17.18.18.34-.17h.17l.16-.16h.18l.17.17v.18l.18.18v.17h.17l.18-.17h.34l.17-.18.17.18.2.17h.33l.17.17v.52l.35.68h.17l.34.18.18.17.17.17h.18l.17.17h.17l.87.17v.17l.16.17v.18l-.17.17.16.35.17.17.52.35.34.17V80.67l-.53.17H216l-.17.17-.17.17h-.17l-.7.17V82.58l.17.17.17.18.17.34.36.52.34.34v.34l.17.17.35.17.17.35V86.54l-.18.17-.17.18h-.18v1.21l-.17.17v.18h-.51l-.36-.18-.7-.17h-.16l-.17.35.18.17.17.17.35.17.17.17.34.36.2.17v.17l-.2.18v.17l.2.34v.68l.16.35.17.17v.51l-.17.2v.16l-.17.17v.17l-.36.35v.17l.17.17v.16l-.16.35-.17.18v.17l-.35.17-.34.18-.17.17v.34l-.16.2-.35.16-.18.17-.34.17-.18.17-.17.35v.17l.17.16v.35l.18.35.17.17.17.18v.17l.17.17v.17l.16.36-.17.17-.35.17v.17l.17.18-.17.34-.17.16-.35.18-.17.17v.35l.17.17v.18l-.17.17-.35.34-.16.2v.5l.17.17.2.18v-.18l.33-.17V90.5h.17v-.52h.18l.17.17v.17l.17.17.17.16.16.18h.18l.17.17v.53h.18l.34-.18v-.17l.18-.34h.87v-.18l.34.18h.17l.35-.18h.34v.18l.18.17.34-.16h.34l.35.17.34-.16.2-.18v-.35l.5-.17v-.17l.17-.18.52-.86.34-.17.17-.17.18-.17.17-.18.17-.17h.18l.17.17.17.18.35.17h.16v.34l.7.35v.85l.16.17.17.17.16.16h.17v.7l-.34.35v.17l-.18.17-.17.17.17.36-.17.17v.17h-.18l-.17.17-.34.52-.17.16-.36.35v.18l-.17.34v.18l-.17.17-.18.34-.17.2.17.16V96l-.17.17-.17.35V97.2l-.17.18v.52h-.16l-.35.34v.37h.16l.18.16-.18.17-.17.34-.18.18.17.17v.17l-.18.16-.35.18-.17.17-.17.18v.34l.34 1.04v.34l.18.17h.17l.17.18.16.17.18.17.34.16.17.17.17.18h.18l.17.18h.17l.17.17.2.17.33.52-.17.17v.18l.34.52.17.17h.18v.18l.17.17.17.17v.33h.33l.18-.17.18.17H224.44v.18h.17l.18.18h.18l.17.17.86.17.16.35v.34l-.17.18-.18-.17-.35.18-.17.18-.17.17h-.17l-.18.34-.5 1.38v.17l.16 1.72-.17 2.07-1.04.18h-1.74l-2.57.52-.17.17-.86.35-.86.34-.35.17-.7 1.04v.17l-.17.34v.69l.17.35v.17l.17.16.18.17.17.17v.18l.17.17-.18.52-.17.17-.18.17-.34.18v.17l-.17.35v.52h-.17v.17l-.2.33-.16.35-.17.17h-.52l-.17.17-.7.52-.16.17v.18l-.17.17-.17.7-.35.68-.34.86-.53 1.37h-.17l-.35.17-.17.17v.2l-.34.33v.17l-.35.52-.35.86v.17l-.17 1.55-.18.18v1.03l-.34.35-.17.35-.2.7-.16.5v.52l.35.86.16.17v.17l-.17.35h-.53l-.17.7-.17.33-.18.17-.17.35-.34.17-.18.16v.52l.18.17.7.7.16.16.5.53h.53l.17.17.35.17.7.18h1.02l.7-.35.16-.34.35-.35.68-1.02v-.17l.18-.34v-.17l-.18-.18-.17-.17.16-.18v-.17l.35-.17v-.17l.87-1.04 1.38-.86.34-.17.68-.7 1.38-.17.34-.17.17-.17.35-.36.17-.34.16-.7.35-.68.35-.34.35-.7v-.85l-.18-.7.18-.34.5-.7.7-1.2.17-.35 1.38-2.06.17-.18.35-.7.17-.17.17-.17.7-1.03 1.03-.86.35-.18.86.17.86-.36.52-.5.17-.2.5.36h1.04l1.55-1.72h.16l.52.34.17.17v.5l.34.87.17.17.34-.17.53-.17v-1.03l-.17-.35-.35-.34-.5-.35v-.34l.17-.7.17-.7.17-.16v-.17l.18-.35.35-.7.5-1.88.88-1.38.52-1.2h.17l.17-.35.34-.33.18-.35h.18l.68-.7.35-.33.33-.7.18-.34.18-.35-.17-.85.18-.86.34-.53.35-.34-.18-.7.17-1.02.34-.34.35-.17.35.5.7.18.85-.7.34-.68.17-.17.34-.17V99.1h.18l.17-.17.7-.17.34.17h.16V98.08l-.17-.35v-.68l.16-1.04.17-.86 1.2-.7.35-.85.52-.7.17.35h.35l.34-.18.7-.68h.85l.35.16.18.17.34.7-.17.33-.35.35v.35l.18.52.34.17h.17l-.17 1.03-.17.7-.7.17-.16-.18-.18-.34h-1.03l-.34.7-.18 2.05v.87l.68.68-.17.35-.5.34-.2.36-.16.34.17.17.18.52.17 1.02-.36.18-.17.34-.7.52-.16.7-.33.16-1.2-.17-.18.34v.68l-.53 1.55v.17l-.52.17-.17.18-.34.17-.7 1.37-.34.68.18 1.04.5.5.2.2.16.33-.17.17-.52.17-.7.5-.33.7v.34l.34.7.17.68-2.24 1.55-.18.17-.34.7-.17.16-.17 1.04-.5.34-.36.35-.34.7v.16l-.17.33v.35l.17.34-.17.35-.18.17-.5 1.38-.2 1.03-.33 1.03-.52 1.03-.17.36-.17.52-.36.86-.34.7-.34.67-.18.2-.5.33-.2.17-.33.7-.17.16-.17.18-.34.86v.17l-.86 2.07-.52 2.23v.35l-.17 1.38v.17l-.16.17-.17.35h-.17v.33h-.18v.34l-.17.52V141.63l-.17 1.03-.17.52-.17 1.02v1.19l-.17.35-.34.86h-.17l-.18 1.2-.17.18-.17.35.17.86v.18l.17.7.86 1.54.18.18.35.86v.17l.35.7v1.02l-.18 1.03h-.17v.18l-.17.68-.86 1.04-.17.17-.18.17v.17l-.7.5-.85.36-.34.17-.35.34-.68.52h-.18l-.34.5-.35.35-.17.17-.16.17v.17l-.17.34v.18l-.17.17-.18.52v.17l.18.7v.5l-.18.35-.17.17-.17.17-.35.7-.34.85-.18.16v.17l-.17.35-.18.86-.17.5v.53l-.17.86-.17.52-.17.17-.36.7-.17.33v.18H221l-.18.86v.33l-.17.52-.17.7-.17.16-.16.35v.35l.34 1.2v1.39l.17.52.17.34v.17l.18.36.34.86.17.34.2.18.33.86v.87l-.17.17v.17l-.17.17-.2.18v.5l.2.52.16.52.17.34v1.02l-.17.52-.7 1.2-.16.34-.35.34-.17.35-.34.52-1.55 2.92-.36.86v.18l-.17.7-.17.5-.18.87v.18l.18.86v.35l.17.17v.34l.17.34-.17.18-.17.35-.18.86-.17.5v.18l-.17.17-.17.17-.16.35-.35.7-.7 1.02-9.8-.7-.36.7-.17.16-.17.7-.17.68-.18.86v.86l-.17.7-.17 1.02-.16.86-.17.35-.18.33-.35 1.55.17.86v.18l.17.17.17.68v.17l.34 1.2.18.35.17.34.35.86h-.17l-.18.86-.17.18-.17.34v.17l-.33.52v.87h.17v.17l.17.35h.18v.17l.7.7.16.5.17.35.2.17.16.35-.17.33v.35l-.53.68-.34.35-.18.18v.17l-.17.7-.17.16.18.2.17.5.18.35v.17l.17.34.17.18.17.17.35.18.16.17.52.52.34.7.17.33.16.17v.35l.18.34-.18.86v1.55l-.17.52v.16l.16.35.18.7.17.17.18.7.35.85.17.34 1.38 1.55.34.36.34.17.18.17.34.35v.17l-.17.7-.16.16-.18.17-.17.17-.18.35-.17.34.17.36.17.34V239.96l-.18.7-.17.16v.35h-.17l-.18.5-.17.2-.17.33-.17.52-.2.34-.16.35-.17 1.04-.17.7v.5l-.17.18v1.03l.17.34.17.34.17.34v.17l-.17.35v.87l.17.68v1.38l.17.86.2.85.16.34h-1.38l-.34.17H195.13l-.5.17H191.87h.53-.86l-.34.17h-1.73l-.7.18h-3.26l-1.37.17H179l-.34.18h-4.49l-2.07.17-.7.17h-.87l-.86.17h-2.25l-1.9-.17H148.2l-1.22-.17h-8.27.36l-1.2-.17h-3.63l-.34-.18H119.05l-.68-.17H117l-2.42-.17H113.72l-.18.18h-.34l-1.55-.17h-1.56l-.52.18H99.27l-1.55-.17h-6.03l-.68-.16h-.36l.17-.17v-.35l-.16-.34v-.52l-.17-.17v-1.56l-.17-.17-.35-.35-.17-.34-.17-.7-.5-.5h-.18v-.18h-.17l-.18-.17-.17-.35-.17-.17v-.51l-.17-.35-.17-.17-.2-.17-.16-.5v-.18l-.17-.18-.17-.17-.18-.17-.34-.34-.52-.18-.17-.17-.35-.16-.35-.17-.34-.18h-.17l-.2-.18-.33-.17h-.52l-.34-.17-.34-.17-1.03-.34-.52-.17-.33-.18-.7-.18-.5-.17h-.36l-.17-.17-.17-.17h-.18v-.17h-.17l-.52-.35-.33-.16h-.17l-.17.17h1.03-.17l-.36-.16h-.17v-.17l-.52-.35-.34-.17-.16-.17-.18-.17-.34-.68-.34-.35-.18-.17-.34-.17h-.35l-.35-.35-.17-.17-.17-.16v-.52l-.18-.17h-.17l-.17-.17h-.16l-.17.17h-.36l-.17-.17v-.34l-.17-.17-.18-.17v1.88h-.17l-.17-.17v-.16h.17l.17-.17.18-.17v-.18l-.18-.17-.17-.17-.17-.17v-.17l-.17-.34v-.53l-.18-.5-.18-.7-.17-.86v-.34l-.17-.17h-.52l-.17-.18v-.17l.18-.52v-.52l-.17-.16-.16-.34-.17-.18.17-.7-.17-.33-.18-.18-.35-.35-.17-.17-.18-.17-.5-.34-.36-.2h-.17l-.17-.16v-.17l-.17-.17v-.18l.17-.17v-.85.85l-.17-.5v-.2l.17-.16.17-.7v-.34.17h1.38v-.17l-.17-.35-.18-.33v-.87l-.17-.16-.34-1.55v-.2l-.18-.5-.18-.35v-.34l-.17-.16V220.32l-.17-.17V220l.17-.2v-.33l.17-1.38-.17-.87v-.54l.17-.16v-.17l.18-.17.34-.17.17-.18.35-.5.17-.2v-.33l.17-.34.17-.18.34-.86.17-.34v-.17l.18-.18.17-.17.18-.17.86-.85.33-.35.35-.34.34-.17.17-.18v-.18l.17-.17.17-.34v-.35h-.17v-.17h-.35.17l-.18-.16v-.17l.17-.18v-.18l-.18-.17-.34-.52-.18-.5-.86-1.22-.34-.33-.17-.18-.35-.35-.17-.17-.16-.18-.7-.34-.68-.34-.34-.18-.35-.17-.34-.17h-.35l-.17-.17-.16-.17-.17-.35-.18-.33v-.36l.17-.17.17-.17.17-.17v-.17l.18-.34.17-.18V200.53l-.17-.35v-.51l-.17-.18-.16-.18v-.17l-.17-.17-.18-.17-.7-.86-.17-.34-.17-.34v-.18l.17-.17v-.16l.18-.17.18-.18.17-.35.17-.52v-.17l-.17-.34V193.65l-.17-.17h-.17l-.17-.17-.17-.18-.17-.5.5 1.2v-.7l.18-.17.34-.34v-.17l.17-.34v-.87l-.18-.17v-.18l-.17-.17-.17-.16-.17-.17-.17-.17-.17-.18h-.17l-.18-.17-.18-.17-.17-.17-.17-.34.17-.7.17-.68v-.67l-.17-.18-.17-.17-.17-.17v-1.38l.17-.86v-1.03l.17-.16.17-.35.18-.18.17-.17v-.18h.16v-1.04l.35-1.2.18-.34v-.18l-.35-.52-.17-.34-.17-.17-.18-.2v-.33l-.18-.34-.17-.52-.17-.34-.17-.34V175.73l-.17-.34-.18-.36-.17-.34H65l-.17-.17-.16-.18v-.17l-.17-.17-.35-.34v1.2l-.17-.16v-.17l-.17-.35V174h-.17l-.17-.34-.34-.17-.18-.18v-.17l-.18-.35-.17-.17-.17-.17-.17-.17-.17-.53-.18-.34v-.18l-.34-.34-.35-.68-.18-.17-.34-.17-.35-.35h-.17l-.17-.34V169l-.53-.52v-.17l-.17-.18v-.17l-.17-.34-.17-.17-.18-.18-.17-.18h-.16v-.17h-.17l-.17-.17-.18-.18-.17-.17-.34-.17h-.69l-.52-.17-.34-.36-.18-.17-.68-.17h-.87l-.5-.17-.53-.18h-.52l-.17-.17-.16-.17-.17-.16h-.17l-.18-.17v-.18h-.17V164l-.17-.17v-.17l-.17-.18v-.17h-.17v-.17l-.17-.17-.17-.18-.35-.18-.18-.17H50l-.17-.17-.17-.17-.17-.18h-.2v-.17h-.16l-.17.17-.17-.17h-.18l-.17-.17v-.16l-.17-.17h-.17l-.16-.18-.18-.35-.17-.17-.18-.17-.17-.17v-.17l-.18-.17-.17-.18-.17-.18h-.17l-.17-.17-.2.17-.16-.17-.52-.34V158.18l-.17-.18-.34-.52-.16-.17-.35-.17h-.18v-.17h-.7l-.16-.17h-.17l-.2-.18-.33-.18-.17-.17-.18-.17-.86-.34-.34-.35-.34-.33-.52-.86-.17-.17-.36-.17v-.17h-.17l-.17-.18-.17-.18-.35-.17V153l-.34-.17-.35-.17h-.18v3.27-.52l-.17-.16-.17-.17-.35-.7 3.45-.16v-.17l.34-.7v-.5l-.17-.17-.17-.18-.18-.17v.18l-.17-.17.17-.33v-.17h-.17v-.18l-.17-.17-.17-.17-.2-.17h-.16l-.5-.34h-.2v-.17l-.16-.18v.34-.17h.17v-.18l.18-.17.34-.35v-.34l-.17-.35-.17-.33v-.17l-.18-.35-.17-.17-.34-.17-.18-.17-.34-.5-.17-.18-.35-.35-.17-.17-.17-.17-.17-.18h-.2v-.17h-.33v-.16h-.17 1.03-.34l-.2-.17-.33-.17-.17-.18-.17-.17h-.18l-.34-.17-.16-.17-.7-.34h-.16l-.35-.34v-.17l-.17-.18-.17-.17h-.2l-.16-.17-.17-.17h-.69l-.17-.17-.16-.2-.35-.16h-.18l-.17-.17-.35-.17h.87l-.18-.18-.18-.17-.17-.17-.7-.17-.85-.16h-.35l-.68-.35-.35-.18-.86-.17v1.2l-.17-.17-.36-.34-.17-.18-.17-.17-.17-.18-.18-.17-.17-.18-.5-.34-.7-.52-.18-.16-.17-.34-.17-.18-.17-.17-.18-.17v-.17l-.18-.16v-.18l-.17-.34H24v-.52l.17-.7-.17-.16v-.17l-.17-.17-.17-.35-.18-.34v-.16h-.17v-.35h-.16v-.18l-.17-.17v-.17l-.35-.18-.34-.17-.52-.17-.34-.17H19.5l-.17-.2h-.17l-.35-.16-.17-.17-.17-.17-.18-.17h-.18l-.34.17H17.1l-.16-.17-.35-.18-.18-.17-.34-.17h-.17l-.17.18h-.52l-.17-.17-.35-.16v-.18h-.17l-.17-.17h-.18l-.34.16-.34.18-.18.17-.17.18h-.17 2.07-.18l-.17-.17-.17-.16v-.18l.17-.17v-.35l-.34-.86-.18-.36H14v-.17h-.33l-.17-.17-.18.17-.17.17h-.34l-.17-.17-.17-.17-.34-.35H11.43l-.17-.17-.18-.17v-.69l.18-.34v-.52l-.35-.7-1.02-.5-.17-.18-.17-.17-.17-.33-.17-.18-.53-.7-.34-.34v-.17l-.17-.18-.18-.18-.5-.34-.7-.7-.17-.16-.5-.35-.18-.18h-.17l-.35-.34-.34-.35H4.9l-.36-.17h-.17l-.52-.52v-.17h-.17v-.17l-.17-.17v-.35l.18-.34v-.17l.17-.52.17-.17.35-.35.17-.34.17-.36.2-.68v-.18h.16V117l.34-.5v3.27-.18l.17-.18v-.17h.18l.17-.17v-.51l-.17-.7v.18-.34l.17-.34.17-.35.16-.16-.17-.17-.18-.35-.17-.34-.18-.17.18-.17v-.34l.34-.18.16-.18.18-.17v-.17h.17v-.17l.18-.35.17-.7.17-.33v-.51l-.17-.17V111.66l-.17-.34-.17-.17-.16-.18v-.17h-.18v-.85l.18-.34-.18-.17v-.68l.18-.18.17-.34.18-.17v-.35l.17-.16v-.34l-.17-.18-.17-.34-.16-.17-.18-.17-.17-.17-.18-.17-.17-.18-.18-.17-.17-.18h-.17l-.17-.34v-.17l-.17-.18.16-.17v1.4l.17-.18.34-.52v-.17h.18l.17-.17.17-.18.5-.34.35-.34.52-.35.34-.17.18-.35.18-.17v-.17l-.18-.18-.17-.17-.16-.18-.17-.86-.35-.85v-.17.34l.18-.17.17-.34.17-.16v-.18h-.17l-.17-.17-.35-.35-.17-.18v-.51l.17-.52v-.17l.17-.17.18-.18v-.17l.17-.17-.17-.17-.18-.16v-.7l-.17-.7.17-.16.18-.2.17-.33v-.35l-.17-.17-.18-.34-.17-.34v-.68l.17-.18.35-.17.17-.17.34-.17.18-.2h.17l.17-.33.7-.7.16-.16.17-.34.18-.17v-.52l-.17-.7v-.17l.18-.16.18-.34.7-.52h.16l-.17-.17.17-.16.17-.18.18-.17.18-.18.17-.17.34-.17.35-.18v-.34l.17-.17V86l.16-.33v-.17l-.17-.17-.18-.18.17-.17v-.33l.16-.52v-.52l-.17-.68v-.18l-.35-.17-.7-.34-.17-.18h-.17l-.16-.17v-.17l-.17-.16-.17-.17-.18-.18V81l-.17-.34-.17-.18-.17-.34-.34-.7-.17-.16-.35-.35-.18-.17v-.17 1.56l.18-.7v-.33l-.18-.18-.34-.34-.35-.16-.17-.17-.16-.18h-.17l-.17-.18-.35-.34-.17-.18-.17-.17h-.85l-.35.17-.34.18h-.53l-.34-.18-.35-.17h-.17l-.86-.17-.35-.34-.17-.18-.17-.17.17-.7-.17-.33v-.17l.17-.35.17-.34v.5l-.17-.33-.17-.34v-.17l.17-.34v-.36l-.17-.17h1.2z" fill="none" stroke="red" stroke-width="1.72"/><g font-size="10" font-family="TravelingTypewriter"><path d="M85.2 213.96c-.1.17-.1.33 0 .47.1.13.2.27.34.4.13.12.23.25.33.38.1.14.1.3 0 .47.1.08.13.18.1.3 0 .12-.03.24-.05.37-.02.12-.02.25 0 .37.04.13.14.23.3.33.1.17.15.37.2.6.04.24.1.5.13.74l.14.74c.04.25.1.46.2.63.06.07.1.12.15.14.05.02.1.03.12.02.04-.03.06-.08.06-.17.08-.08.14-.2.2-.36l.14-.53.14-.58c.05-.2.12-.4.2-.56 0-.25.03-.5.1-.7.07-.23.15-.43.23-.62.1-.2.17-.37.24-.54.07-.17.1-.35.1-.52.17-.17.28-.36.3-.56l.1-.58c.02-.2.06-.37.13-.53.07-.16.24-.28.5-.36h1.7c.17 0 .26.06.3.2.02.13.03.3.03.46-.08.17-.17.26-.3.25-.1 0-.2-.02-.32-.07-.1-.04-.2-.07-.27-.07s-.1.07-.1.25v8.82c0 .1 0 .14.03.15.03 0 .07 0 .1-.03.06-.02.12-.06.2-.12.08-.1.17-.14.25-.14.1 0 .17 0 .23.02l.2.12c.18.16.26.27.26.33s-.1.17-.27.34c-.17.07-.32.12-.45.13-.13 0-.26 0-.4-.02-.12 0-.24-.03-.38-.06-.13-.03-.28-.05-.45-.05-.17 0-.32.02-.45.08s-.24.1-.35.12c-.1.02-.2 0-.3-.07-.1-.07-.2-.23-.28-.48 0-.16 0-.26.04-.28.04-.03.15-.05.33-.05.17 0 .33.02.47.05.13.02.2.12.2.28.08-.25.13-.5.15-.7.02-.22.02-.44.02-.65 0-.2 0-.43.02-.65 0-.22.06-.45.15-.7v-4.4l-.35-2.04c-.26.43-.47.9-.6 1.38-.15.5-.28 1-.4 1.54l-.3 1.6c-.1.55-.23 1.08-.4 1.58-.16.17-.33.27-.5.3-.17.03-.34.05-.5.05-.17-.18-.3-.36-.35-.56-.07-.2-.12-.42-.16-.64-.05-.22-.1-.43-.17-.63s-.2-.4-.36-.56c-.18-.67-.4-1.34-.68-2.02-.3-.7-.52-1.37-.68-2.04v8.82c.06.12.13.18.22.2.08 0 .17 0 .27-.03s.2-.06.27-.1c.1-.03.16-.04.22-.03.04.02.08.07.1.16 0 .1-.02.25-.08.46v.32c-.17-.1-.36-.17-.58-.16-.2 0-.43.03-.66.07l-.7.14c-.22.06-.43.08-.62.06-.2 0-.37-.08-.5-.2-.16-.1-.26-.3-.3-.58.07-.08.15-.16.24-.23.08-.08.17-.14.25-.18.1-.05.17-.07.25-.06.08.02.17.06.26.14l.35.33c.18-.08.27-.18.3-.3 0-.12 0-.25-.04-.37-.04-.13-.1-.25-.16-.36-.06-.12-.1-.22-.1-.3v-7.8h.35c-.17-.1-.32-.13-.45-.1-.14 0-.26.03-.37.04-.1.02-.2.02-.3 0-.08-.03-.16-.13-.24-.3-.1-.08-.15-.16-.16-.25 0-.07.02-.15.07-.2.05-.06.1-.1.2-.15.06-.04.14-.06.22-.06.17-.1.34-.12.52-.1.17 0 .34.04.5.08l.5.1c.17.02.34 0 .5-.1.1-.07.16-.1.2-.08.06.03.1.08.1.17.03.08.04.18.05.3v.3zM97.13 215.56c.2.28.3.55.3.83.04.26.04.55 0 .85 0 .3-.03.6-.06.94-.02.32.02.66.1 1 0 .56-.05 1.1-.16 1.65-.1.54-.17 1.08-.17 1.64.2.08.4.13.6.14.22 0 .45 0 .67-.02l.66-.08c.22-.04.43-.05.62-.05h.73c.36.36.36.74 0 1.1v.35h-6.56c-.2 0-.38-.06-.56-.17-.17-.12-.35-.18-.54-.18-.1-.1-.12-.18-.1-.27l.15-.3.2-.27c.07-.1.1-.18.1-.27 0-.1.02-.16.06-.17.04 0 .1 0 .17.02l.24.08c.1.04.18.06.27.06.2.08.4.13.6.14.2 0 .42 0 .63-.02l.56-.08c.16-.04.3-.05.38-.05-.08-.46-.13-.93-.13-1.43 0-.5 0-1 .02-1.5 0-.5.03-1 .06-1.5.04-.5.05-.96.05-1.42-.35-.17-.8-.2-1.3-.1-.5.13-1.04.28-1.6.48-.18-.1-.3-.2-.36-.34-.05-.14-.07-.28-.05-.4 0-.15.07-.28.15-.4.08-.14.16-.25.25-.34zm.73-2.9c.1.08.14.18.14.27 0 .1 0 .18-.06.27-.04.08-.1.17-.2.26-.08.1-.17.2-.26.28-.1.1-.2.16-.33.2-.13.05-.26.07-.4.07-.13 0-.27 0-.4-.06-.13-.04-.24-.1-.34-.2-.08-.1-.18-.17-.3-.23-.1-.04-.2-.1-.3-.18-.1-.06-.16-.15-.2-.25-.03-.1 0-.23.1-.42.08-.27.25-.5.5-.67.25-.17.5-.27.77-.3.27 0 .53.05.78.2.25.15.42.4.5.77zM105.9 212.53c.1-.1.2-.14.28-.14.1-.02.16 0 .22.04.07.04.12.1.16.2.04.07.06.16.06.24v9.24c-.1 0-.14.02-.15.06 0 .04 0 .1.02.17 0 .07.03.14.07.23.03.1.05.18.05.27h3.22c.08 0 .16.02.25.06.08.05.14.1.18.17.04.07.06.15.05.23 0 .1-.05.17-.15.25-.1.18-.2.3-.3.36-.13.07-.26.1-.4.1s-.27 0-.4-.04c-.12-.03-.23-.05-.32-.05-.45.1-.88.16-1.28.16s-.8 0-1.16-.02c-.37 0-.74-.04-1.1-.07-.37-.04-.72-.06-1.08-.06-.26 0-.5.03-.68.07-.2.03-.36.06-.52.07-.15.02-.3.03-.44.02-.15 0-.3-.05-.5-.15-.17 0-.3 0-.35-.05-.06-.05-.1-.12-.1-.2 0-.1.02-.2.05-.34.03-.13.04-.28.04-.45.28-.2.53-.27.77-.26.24 0 .48.04.72.1.25.08.5.14.8.2.27.06.6.04.94-.05 0 .1.02.14.06.15.03 0 .07 0 .12-.02l.17-.13c.2-.2.3-.38.33-.55.03-.18.04-.35.04-.52-.1-.53-.13-1.08-.1-1.65.02-.58.05-1.15.1-1.73l.1-1.73c0-.56-.02-1.12-.1-1.66v-1.04c-.12-.18-.3-.3-.53-.3-.25-.03-.5-.03-.8 0l-.85.1c-.3.04-.56.04-.78 0-.23-.04-.4-.15-.52-.33-.12-.2-.15-.48-.1-.9zM113.97 215.84c0 .1-.08.2-.22.28-.14.1-.28.2-.4.32s-.18.25-.18.4c0 .15.14.3.42.5-.1.2-.14.38-.1.57.02.2.07.4.14.62.07.2.14.43.2.67.1.22.13.48.13.77.1.2.12.4.1.57l-.02.52c0 .17.04.32.12.46.08.14.27.25.55.35.1 0 .15-.03.16-.07 0-.05 0-.1-.02-.18l-.1-.24c-.02-.1-.04-.18-.04-.27.2-.37.3-.78.35-1.2.04-.45.1-.86.17-1.24s.2-.7.38-.94c.18-.26.5-.38.98-.38l.2.24.12.24c.04.1.06.18.06.27.1.27.17.55.23.83l.2.85c.08.3.16.57.27.85.1.3.25.57.45.86v.37c.1-.1.16-.2.22-.35l.15-.4.14-.43c.05-.14.12-.26.22-.35-.1-.38-.13-.73-.1-1.07.03-.33.08-.65.15-.95l.22-.9c.08-.28.1-.56.1-.85-.18-.18-.35-.37-.5-.56-.15-.2-.23-.38-.23-.58.1-.1.22-.14.4-.15.16-.02.34-.03.53-.03.2 0 .37 0 .55-.03.17 0 .3-.07.4-.16.17-.18.36-.2.55-.1.2.13.38.28.58.46 0 .2 0 .38-.04.54-.04.16-.15.24-.35.24-.17 0-.34.07-.5.22-.15.15-.23.32-.23.52 0 .57-.08 1.12-.23 1.65-.16.54-.33 1-.5 1.37.08.3.1.55.1.8-.04.23-.1.47-.17.7l-.22.73c-.08.25-.12.5-.12.78v.25c0 .05-.02.1-.05.15-.02.05-.06.1-.1.15l-.22.2h-1.12c-.3-.08-.45-.2-.5-.33-.03-.14-.04-.3-.02-.46.02-.16.03-.34.03-.52 0-.2-.1-.37-.27-.55-.1-.2-.15-.4-.17-.62l-.06-.67c-.03-.2-.07-.4-.13-.57-.05-.17-.18-.3-.36-.4-.1.1-.17.22-.23.35l-.14.45-.16.53c-.05.2-.13.37-.24.56 0 .08.02.15.06.2l.1.17c.02.04.03.1.02.15-.02.06-.07.13-.18.22 0 .1.02.23.06.4.03.16.05.33.05.5 0 .16-.03.3-.1.42-.06.12-.18.18-.37.18-.2.2-.45.3-.76.3-.3 0-.56-.1-.75-.3-.1-.47-.18-.94-.24-1.4l-.15-1.42c-.04-.47-.1-.94-.15-1.4-.05-.48-.13-.95-.22-1.43-.13-.06-.22-.15-.27-.27-.05-.12-.1-.25-.12-.38l-.08-.4c-.02-.1-.07-.22-.13-.32-.07-.1-.18-.15-.3-.2-.15-.02-.35 0-.6.05-.1-.18-.14-.35-.15-.5-.02-.14 0-.27 0-.4.04-.1.06-.22.1-.3.03-.1.05-.2.05-.3.3.2.57.3.84.3.28-.02.53-.03.76-.06.23-.02.44 0 .62.03.2.04.32.2.42.5zM130.1 216.53c.1.5.15 1 .16 1.53 0 .53 0 1.05-.02 1.57l-.1 1.5c-.03.48-.05.9-.05 1.3.1.2.2.33.35.4.14.07.28.12.42.15l.43.07c.13 0 .25.07.36.18h.8c0 .1-.03.18-.07.27l-.16.26c-.05.1-.12.18-.2.26-.18 0-.38 0-.57.04-.2.03-.4.04-.6.04-.2 0-.4-.03-.6-.1-.2-.07-.4-.2-.6-.4 0-.2 0-.4-.04-.58-.02-.2-.14-.4-.33-.6-.4.42-.82.72-1.26.94-.44.2-.9.36-1.35.46-.48.1-.95.15-1.44.17l-1.47.02c-1.2-.8-1.6-1.98-1.18-3.55.26-.4.56-.68.9-.88.34-.2.7-.34 1.1-.42.37-.08.77-.13 1.18-.14.42 0 .83-.02 1.23-.03.4 0 .8-.04 1.2-.1.4-.08.75-.2 1.07-.4v-.65c-.02-.23-.04-.44-.1-.63-.05-.2-.13-.36-.23-.5-.1-.13-.25-.2-.45-.2-1.2-.37-2.37-.37-3.54 0 .06.1.13.17.2.27.04.07.1.15.13.24.05.1.07.2.07.3-.1 0-.18.02-.24.06l-.2.13c-.07.04-.17.1-.28.13-.12.04-.27.06-.47.06-.15 0-.28-.02-.4-.06-.08-.02-.17-.06-.25-.1-.08-.06-.12-.13-.12-.22-.2 0-.32-.1-.35-.26-.04-.17-.05-.36-.05-.55.3-.4.66-.7 1.08-.9.42-.2.87-.35 1.33-.42.48-.06.95-.08 1.42-.05s.9.1 1.3.2c.4 0 .77.1 1.13.3.35.2.63.5.84.88zm-1.58 5.1c.28 0 .46-.07.54-.23.08-.16.1-.36.1-.58-.03-.23-.07-.48-.14-.75-.07-.26-.1-.5-.12-.68-.02.14-.1.22-.26.24-.16.03-.33.04-.53.04-.25.14-.54.2-.86.23-.32.03-.64.03-.96.02-.33 0-.65-.02-.97-.03-.3-.03-.6 0-.85.08-.26.07-.48.2-.67.4-.2.2-.3.5-.37.88 0 .4.1.77.25 1.13.16.35.34.63.53.83.5.1.94.1 1.35.07.4-.04.77-.13 1.12-.28.34-.15.66-.34.97-.58.3-.23.6-.5.9-.8zM136.08 215.9v6.17c0 .2.04.35.13.45.1.1.2.18.32.23.12.05.25.08.38.1h.33c.5 0 .9-.1 1.25-.27.35-.18.66-.4.92-.7.27-.28.5-.6.7-.98.22-.37.42-.74.6-1.14v-3.08c-.18-.2-.35-.32-.5-.4-.15-.05-.3-.08-.45-.08-.15 0-.3.02-.45.05-.15.04-.32.05-.52.05v-.77c.2-.1.4-.16.64-.17.23-.02.47-.02.7-.02.25 0 .48 0 .7-.03.24 0 .45-.06.65-.17.1.2.16.4.17.65l.02.7c0 .25 0 .5.03.72 0 .23.06.44.17.64-.2.58-.3 1.22-.35 1.92-.03.7-.05 1.35-.05 1.93 0 .1-.02.18-.05.28l-.1.3c0 .1-.02.2 0 .28 0 .1.06.2.15.3.2.08.4.1.58.04l.53-.16c.17-.04.32-.05.47 0 .14.04.26.2.35.5 0 .18-.08.36-.23.52-.16.16-.33.24-.53.24-.1 0-.24.02-.42.05-.18.04-.38.05-.6.05-.2 0-.44-.03-.67-.1-.23-.05-.44-.18-.63-.38v-1.15c-.3.3-.6.55-.93.78-.35.24-.7.43-1.06.57-.36.14-.73.24-1.1.28-.38.04-.77 0-1.16-.1-.2-.1-.35-.2-.46-.34-.1-.14-.2-.28-.26-.43l-.2-.42c-.06-.13-.14-.24-.23-.33v-5c0-.12 0-.22.05-.3l.08-.3c.03-.1.03-.18.02-.28 0-.1-.06-.2-.15-.3-.2-.1-.4-.12-.58-.07-.2.06-.37.1-.53.16-.17.04-.33.04-.47 0-.14-.04-.26-.2-.35-.5.2-.28.4-.46.64-.54.22-.08.46-.12.7-.12.24 0 .48 0 .72.02.23.02.45-.02.64-.13zM147.1 212.17c0 .66-.02 1.3-.06 1.96l-.08 1.93c-.03.63-.03 1.25-.02 1.85 0 .62.06 1.2.15 1.76l.9-.63c.3-.23.64-.48.96-.74l.97-.8.9-.84c0-.1-.07-.16-.22-.23l-.43-.2c-.15-.06-.25-.15-.3-.25-.06-.1 0-.25.2-.43.37 0 .74-.02 1.1-.05.4-.03.75-.04 1.1-.04.35 0 .7.03 1.02.1.3.06.6.18.9.36 0 .26-.05.43-.12.53-.08.1-.18.15-.3.16-.12.03-.25 0-.4-.03l-.42-.1c-.15-.03-.27-.04-.4-.02-.1.02-.2.1-.25.2-.18.2-.4.4-.67.57-.26.2-.5.38-.77.56-.26.2-.5.37-.7.56-.22.2-.37.38-.47.56.28.37.56.72.84 1.05l.8 1c.26.32.5.65.72 1 .23.33.43.7.6 1.07.2 0 .4-.04.63-.1.2-.07.4-.12.6-.14.18-.03.33 0 .46.08.13.07.2.25.2.52 0 .2-.02.3-.05.34-.02.03-.13.04-.3.04-.2-.1-.4-.14-.58-.16-.18 0-.37 0-.56.02-.2.02-.37.05-.56.1-.18.02-.37.04-.55.04-.1 0-.24.02-.4.05-.2.05-.37.06-.56.06-.2 0-.37-.03-.54-.1-.17-.05-.3-.18-.4-.38.08-.07.16-.13.24-.17l.24-.12c.1-.04.2-.06.3-.06.08-.1.17-.15.26-.16l.23-.03c.07 0 .12 0 .16-.03.03 0 .05-.07.05-.16-.18-.18-.37-.4-.56-.68l-.6-.86c-.2-.3-.43-.6-.67-.93-.24-.32-.5-.6-.78-.9-.18.1-.35.22-.5.35l-.43.4c-.13.14-.28.28-.43.4-.16.14-.32.26-.5.36.1.18.12.37.1.55-.02.2-.06.37-.1.56-.05.18-.1.37-.1.56-.03.2 0 .38.1.56.18 0 .36-.02.55-.05l.5-.1c.17 0 .32-.02.46 0 .15 0 .26.06.35.15 0 .37-.06.6-.2.7-.1.08-.27.1-.45.08l-.6-.1c-.22-.05-.42-.03-.6.06-.2.1-.4.15-.57.16-.2.02-.37.03-.56.03-.2 0-.38 0-.56.02-.18.02-.36.08-.54.17-.4-.38-.4-.75 0-1.12.1-.28.18-.42.27-.42.1 0 .2.02.3.1.13.06.26.12.4.16.14.04.3-.04.5-.22l-.35-8.2c0-.1 0-.22.05-.36l.08-.4c.04-.15.04-.28.03-.42 0-.13-.06-.24-.15-.33-.1 0-.23 0-.36.04-.13.03-.26.04-.4.04s-.28 0-.4-.07c-.14-.06-.26-.18-.36-.36-.1-.2-.1-.3-.03-.38.06-.08.16-.13.27-.16l.35-.07c.1 0 .17-.07.17-.16.18.1.36.16.55.17l.52.03c.16 0 .3 0 .45.02.14 0 .25.06.34.15zM163.17 218.06c0 .2.02.38.05.57.03.18.04.35.04.5 0 .18-.03.32-.1.46-.06.13-.18.25-.36.34-1.12-.38-2.23-.38-3.33 0-.27-.1-.53-.15-.76-.16-.23 0-.45 0-.66.02-.2.02-.4.05-.6.1-.2.02-.38.04-.57.04-.18.18-.26.34-.25.5.02.13.07.27.17.4.08.15.18.3.3.44.1.15.15.32.15.5.1.18.2.33.34.43.12.1.25.2.4.27l.4.2c.13.04.24.12.33.2.75 0 1.4-.16 1.95-.5.55-.34 1-.78 1.38-1.33.2 0 .36.07.5.22.16.15.24.32.24.52 0 .18-.05.35-.13.5-.1.15-.2.3-.34.43-.14.15-.3.3-.46.44-.18.15-.35.32-.54.5-.27.1-.6.17-1 .25-.4.06-.8.1-1.23.1-.42 0-.82-.05-1.22-.16-.4-.1-.73-.3-1-.58-.2-.28-.4-.54-.6-.78-.23-.25-.43-.5-.6-.75-.2-.25-.35-.52-.47-.8-.1-.3-.17-.63-.17-1 0-.1.02-.18.06-.28l.12-.32c.04-.12.1-.26.13-.4.04-.14.06-.3.06-.5.1-.36.24-.72.4-1.08.2-.35.4-.68.66-1 .25-.3.54-.55.86-.77.32-.22.67-.37 1.03-.46.55 0 1.08.06 1.6.2.5.13.95.32 1.37.57.42.24.8.55 1.1.92.32.37.57.78.75 1.24zm-1.48.38c0-.1-.03-.2-.07-.33l-.16-.35-.24-.3c-.1-.07-.18-.1-.28-.1l-.6-.33c-.23-.12-.46-.22-.7-.3-.23-.05-.46-.08-.7-.06-.2 0-.4.1-.6.3-.1.2-.22.35-.38.45l-.5.36c-.16.12-.3.26-.42.4-.12.17-.18.38-.18.66h1.17l1.24-.05c.42-.03.83-.06 1.24-.12.42-.05.8-.12 1.17-.2zM172.4 218.06c0 .2 0 .38.03.57.03.18.05.35.05.5 0 .18-.04.32-.1.46-.06.13-.2.25-.37.34-1.1-.38-2.2-.38-3.3 0-.3-.1-.54-.15-.78-.16-.23 0-.45 0-.66.02-.2.02-.4.05-.6.1-.2.02-.4.04-.57.04-.2.18-.28.34-.26.5.02.13.07.27.16.4l.3.44c.1.15.17.32.17.5.1.18.2.33.33.43.13.1.27.2.4.27l.4.2c.14.04.26.12.35.2.74 0 1.4-.16 1.94-.5.54-.34 1-.78 1.37-1.33.2 0 .37.07.52.22.14.15.2.32.2.52 0 .18-.03.35-.12.5-.08.15-.2.3-.33.43-.14.15-.3.3-.47.44l-.53.5c-.28.1-.6.17-1 .25-.4.06-.8.1-1.23.1-.42 0-.83-.05-1.23-.16-.4-.1-.74-.3-1-.58-.2-.28-.4-.54-.6-.78-.23-.25-.43-.5-.62-.75-.18-.25-.33-.52-.45-.8-.12-.3-.18-.63-.18-1 0-.1.02-.18.06-.28.05-.1.1-.2.13-.32.05-.12.1-.26.13-.4.04-.14.06-.3.06-.5.1-.36.23-.72.4-1.08.2-.35.4-.68.65-1 .26-.3.54-.55.87-.77.32-.22.66-.37 1.03-.46.55 0 1.08.06 1.58.2.5.13.97.32 1.4.57.4.24.78.55 1.1.92.3.37.56.78.74 1.24zm-1.5.38c0-.1 0-.2-.05-.33l-.16-.35c-.08-.1-.16-.2-.26-.3-.1-.07-.18-.1-.27-.1-.18-.1-.4-.2-.6-.33-.24-.12-.47-.22-.7-.3-.24-.05-.47-.08-.7-.06-.2 0-.42.1-.6.3-.1.2-.22.35-.4.45l-.48.36c-.17.12-.3.26-.43.4-.12.17-.18.38-.18.66h1.16l1.24-.05c.4-.03.83-.06 1.24-.12.4-.05.8-.12 1.17-.2z"/></g></svg>