<svg xmlns="http://www.w3.org/2000/svg" width="64" height="64"><path d="M59.70522738 16.72141252c-2.861177-4.90229002-6.74218093-8.78343986-11.6440332-11.64432503C43.15861234 2.2160564 37.8064545.78590564 32.0009267.78590564c-5.80479817 0-11.15870706 1.4305885-16.0602675 4.29118184-4.90229 2.86073924-8.783148 6.742035-11.64432502 11.64432502C1.43559493 21.62355662.00515235 26.97673592.00515235 32.7808045c0 6.97200312 2.0341089 13.24140694 6.10334816 18.80981656 4.0688015 5.56884737 9.32509067 9.42227263 15.76842978 11.56071352.75002294.1392066 1.3052442.04129504 1.66624746-.29125404.36114918-.33298684.5415049-.75002294.5415049-1.24935728 0-.08331967-.00715004-.83290486-.02101233-2.24963107-.01430004-1.41672622-.0210123-2.65265896-.0210123-3.70721457l-.95824916.16576383c-.61096226.11191977-1.38170568.1593434-2.31223025.14591886-.93008683-.01298678-1.89563192-.11046058-2.89532203-.2916918-1.00012787-.17962612-1.9303606-.59622446-2.7914278-1.24891952-.86062943-.65269507-1.4715917-1.50705-1.83274088-2.5617515l-.41659835-.95868692c-.2776836-.6382491-.7148565-1.34726884-1.3121024-2.12443268-.5972459-.77789345-1.20120405-1.3052442-1.8121663-1.5829278l-.29169182-.2088099c-.19436392-.13876882-.37471963-.30613775-.54150488-.50035576-.16663934-.194218-.29139997-.38858192-.37471964-.58323768-.08346557-.19480168-.01430004-.35458283.20822623-.47992713.22252626-.1253443.62467864-.18619247 1.20820816-.18619247l.83290484.1244688c.5555131.11133608 1.242645.44388516 2.06227125.9996901.81918847.55536718 1.492604 1.2773737 2.02039252 2.16572772.6391246 1.13904262 1.40913843 2.006968 2.31223026 2.6042139.90236223.5972459 1.81216632.89535812 2.72853676.89535812.91637044 0 1.70783434-.06945738 2.37468353-.20764254.6661196-.13891475 1.29109007-.34772464 1.8746196-.6252623.249959-1.86163283.93052456-3.29178357 2.041113-4.29147368-1.5829278-.1663475-3.00607443-.4168902-4.2701695-.75002294-1.2633655-.33357052-2.56890154-.8749295-3.91573262-1.6255361-1.34756067-.7495852-2.46544506-1.6804016-3.353945-2.79084412-.88864585-1.1110262-1.61794832-2.56963113-2.18688595-4.3745015-.56922947-1.80559998-.85391717-3.8884458-.85391717-6.2491211 0-3.36124094 1.09730983-6.22154244 3.29149173-8.5825096-1.02785245-2.5270228-.9308164-5.35989156.29139996-8.4983144.8054721-.25025084 1.9999639-.06245327 3.5828917.56222537 1.58321962.62497047 2.74239904 1.16034676 3.4787056 1.60423194.73630658.44373925 1.32625653.81977215 1.77072538 1.12474257 2.5834934-.7218606 5.2495769-1.08286385 7.99898006-1.08286385s5.41607033.36100326 7.99970967 1.08286386l1.5830737-.99939826c1.08257203-.6668492 2.36096716-1.27795738 3.8321211-1.83347048 1.47202947-.55522126 2.59764755-.70814423 3.37568692-.45789338 1.24935728 3.13856876 1.36069337 5.9712916.33254908 8.4983144 2.19403598 2.36096716 3.29178356 5.22199825 3.29178356 8.5825096 0 2.3606753-.28570914 4.45008747-.8540631 6.26954973-.56908355 1.8197541-1.30466052 3.27689985-2.20702275 4.37450152-.90338367 1.09745574-2.02841808 2.0209762-3.37524916 2.77041547-1.34712292.75002293-2.65309672 1.2913819-3.9164622 1.62495242-1.26394917.3335705-2.6870958.5842591-4.2700236.75089845 1.4437212 1.24935728 2.1657277 3.22145067 2.1657277 5.91540467v8.78971437c0 .49933434.17364346.91622453.52122218 1.24935728.34714097.3325491.89535813.43046064 1.64538107.29110813 6.4442146-2.13814905 11.70050378-5.99172022 15.76915936-11.5605676 4.06821782-5.5684096 6.10305633-11.83781343 6.10305633-18.80981656-.0014592-5.80333898-1.43263137-11.15608052-4.29205735-16.05822462z" fill="#009ee0"/></svg>