<svg xmlns="http://www.w3.org/2000/svg" width="64" height="64"><path d="M63.994 38.9146v23.658H50.2788V40.499c0-5.545-1.9838-9.3293-6.9483-9.3293-3.7898 0-6.045 2.5503-7.0373 5.0174-.3617.882-.4548 2.1096-.4548 3.344v23.0416h-13.72s.1847-37.3853 0-41.2587h13.7186v5.848c-.0278.044-.064.091-.09.1334h.09v-.1333c1.8227-2.807 5.0778-6.8174 12.3636-6.8174 9.0268-.0002 15.7937 5.897 15.7937 18.57zM7.7665 1.425C3.0728 1.425.0028 4.504.0028 8.5524c0 3.9603 2.9812 7.1323 7.5815 7.1323h.0917c4.7845 0 7.76-3.1715 7.76-7.1323-.0902-4.0485-2.9755-7.1272-7.6696-7.1272zM.8177 62.5727h13.7148V21.314H.8177v41.2586z" fill="#009ee0"/></svg>