<?xml version="1.0" encoding="UTF-8" standalone="no"?>
<svg
   xmlns:dc="http://purl.org/dc/elements/1.1/"
   xmlns:cc="http://creativecommons.org/ns#"
   xmlns:rdf="http://www.w3.org/1999/02/22-rdf-syntax-ns#"
   xmlns:svg="http://www.w3.org/2000/svg"
   xmlns="http://www.w3.org/2000/svg"
   xmlns:sodipodi="http://sodipodi.sourceforge.net/DTD/sodipodi-0.dtd"
   xmlns:inkscape="http://www.inkscape.org/namespaces/inkscape"
   width="64"
   height="64"
   id="svg2"
   version="1.1"
   inkscape:version="0.48.5 r10040"
   sodipodi:docname="linkedHover.svg">
  <metadata
     id="metadata10">
    <rdf:RDF>
      <cc:Work
         rdf:about="">
        <dc:format>image/svg+xml</dc:format>
        <dc:type
           rdf:resource="http://purl.org/dc/dcmitype/StillImage" />
      </cc:Work>
    </rdf:RDF>
  </metadata>
  <defs
     id="defs8" />
  <sodipodi:namedview
     pagecolor="#ffffff"
     bordercolor="#666666"
     borderopacity="1"
     objecttolerance="10"
     gridtolerance="10"
     guidetolerance="10"
     inkscape:pageopacity="0"
     inkscape:pageshadow="2"
     inkscape:window-width="708"
     inkscape:window-height="480"
     id="namedview6"
     showgrid="false"
     inkscape:zoom="3.6875"
     inkscape:cx="32"
     inkscape:cy="32"
     inkscape:window-x="0"
     inkscape:window-y="0"
     inkscape:window-maximized="0"
     inkscape:current-layer="svg2" />
  <path
     d="M63.994 38.9146v23.658H50.2788V40.499c0-5.545-1.9838-9.3293-6.9483-9.3293-3.7898 0-6.045 2.5503-7.0373 5.0174-.3617.882-.4548 2.1096-.4548 3.344v23.0416h-13.72s.1847-37.3853 0-41.2587h13.7186v5.848c-.0278.044-.064.091-.09.1334h.09v-.1333c1.8227-2.807 5.0778-6.8174 12.3636-6.8174 9.0268-.0002 15.7937 5.897 15.7937 18.57zM7.7665 1.425C3.0728 1.425.0028 4.504.0028 8.5524c0 3.9603 2.9812 7.1323 7.5815 7.1323h.0917c4.7845 0 7.76-3.1715 7.76-7.1323-.0902-4.0485-2.9755-7.1272-7.6696-7.1272zM.8177 62.5727h13.7148V21.314H.8177v41.2586z"
     fill="#00ed07"
     id="path4"
     style="fill:#76ff03;fill-opacity:1" />
</svg>
