<?xml version="1.0" encoding="UTF-8" standalone="no"?>
<!-- Created with Inkscape (http://www.inkscape.org/) -->

<svg
   xmlns:dc="http://purl.org/dc/elements/1.1/"
   xmlns:cc="http://creativecommons.org/ns#"
   xmlns:rdf="http://www.w3.org/1999/02/22-rdf-syntax-ns#"
   xmlns:svg="http://www.w3.org/2000/svg"
   xmlns="http://www.w3.org/2000/svg"
   xmlns:sodipodi="http://sodipodi.sourceforge.net/DTD/sodipodi-0.dtd"
   xmlns:inkscape="http://www.inkscape.org/namespaces/inkscape"
   width="64px"
   height="64px"
   id="svg3905"
   version="1.1"
   inkscape:version="0.48.5 r10040"
   sodipodi:docname="gitHover.svg">
  <defs
     id="defs3907" />
  <sodipodi:namedview
     id="base"
     pagecolor="#ffffff"
     bordercolor="#666666"
     borderopacity="1.0"
     inkscape:pageopacity="0.0"
     inkscape:pageshadow="2"
     inkscape:zoom="5.6568543"
     inkscape:cx="-24.234444"
     inkscape:cy="55.757874"
     inkscape:current-layer="layer1"
     showgrid="true"
     inkscape:document-units="px"
     inkscape:grid-bbox="true"
     showguides="true"
     inkscape:guide-bbox="true"
     inkscape:window-width="1366"
     inkscape:window-height="715"
     inkscape:window-x="1272"
     inkscape:window-y="248"
     inkscape:window-maximized="1" />
  <metadata
     id="metadata3910">
    <rdf:RDF>
      <cc:Work
         rdf:about="">
        <dc:format>image/svg+xml</dc:format>
        <dc:type
           rdf:resource="http://purl.org/dc/dcmitype/StillImage" />
        <dc:title></dc:title>
      </cc:Work>
    </rdf:RDF>
  </metadata>
  <g
     id="layer1"
     inkscape:label="Layer 1"
     inkscape:groupmode="layer">
    <path
       inkscape:connector-curvature="0"
       d="M 56.394197,7.7046547 H 7.6028782 c -4.1871369,0 -7.593705,3.2714473 -7.593705,7.2924913 v 34.008256 c 0,4.021045 3.4065681,7.292496 7.593705,7.292496 H 56.394197 c 4.187137,0 7.593537,-3.271451 7.593537,-7.292496 V 14.997146 c 0,-4.021044 -3.4064,-7.2924913 -7.593537,-7.2924913 z m 0,42.1551543 H 7.6028782 c -0.6154798,0 -1.1552814,-0.399157 -1.1552814,-0.854407 v -29.5112 L 28.514614,38.124341 c 0.452404,0.38208 1.027697,0.592375 1.620068,0.592375 l 3.726866,1.67e-4 c 0.592038,0 1.167671,-0.210462 1.620242,-0.592542 L 57.549814,19.493532 v 29.512205 c 0,0.454915 -0.540303,0.854072 -1.155617,0.854072 z M 31.998538,32.32417 10.535614,14.142745 H 53.461463 L 31.998538,32.32417 z"
       id="path3"
       style="fill:#009ee0;fill-opacity:1" />
  </g>
</svg>
